<svg id="visual" viewBox="0 0 900 600" width="900" height="600" xmlns="http://www.w3.org/2000/svg" xmlns:xlink="http://www.w3.org/1999/xlink" version="1.1"><rect x="0" y="0" width="900" height="600" fill="#f0f6fa"></rect><defs><linearGradient id="grad1_0" x1="33.3%" y1="0%" x2="100%" y2="100%"><stop offset="20%" stop-color="#f0f6fa" stop-opacity="1"></stop><stop offset="80%" stop-color="#f0f6fa" stop-opacity="1"></stop></linearGradient></defs><defs><linearGradient id="grad2_0" x1="0%" y1="0%" x2="66.7%" y2="100%"><stop offset="20%" stop-color="#f0f6fa" stop-opacity="1"></stop><stop offset="80%" stop-color="#f0f6fa" stop-opacity="1"></stop></linearGradient></defs><g transform="translate(900, 0)"><path d="M0 243.4C-28.5 227.3 -57.1 211.1 -81.1 195.9C-105.2 180.6 -124.8 166.2 -150.6 150.6C-176.4 135.1 -208.4 118.4 -224.8 93.1C-241.3 67.8 -242.4 33.9 -243.4 0L0 0Z" fill="#FA7268"></path></g><g transform="translate(0, 600)"><path d="M0 -243.4C23.4 -216.9 46.8 -190.5 74.2 -179.2C101.6 -168 133 -171.9 160.5 -160.5C188 -149.1 211.7 -122.4 224.8 -93.1C238 -63.8 240.7 -31.9 243.4 0L0 0Z" fill="#FA7268"></path></g></svg>