<svg id="visual" viewBox="0 0 900 600" width="900" height="600" xmlns="http://www.w3.org/2000/svg" xmlns:xlink="http://www.w3.org/1999/xlink" version="1.1"><rect x="0" y="0" width="900" height="600" fill="#f0f6fa"></rect><defs><linearGradient id="grad1_0" x1="33.3%" y1="100%" x2="100%" y2="0%"><stop offset="20%" stop-color="#f0f6fa" stop-opacity="1"></stop><stop offset="80%" stop-color="#f0f6fa" stop-opacity="1"></stop></linearGradient></defs><defs><linearGradient id="grad2_0" x1="0%" y1="100%" x2="66.7%" y2="0%"><stop offset="20%" stop-color="#f0f6fa" stop-opacity="1"></stop><stop offset="80%" stop-color="#f0f6fa" stop-opacity="1"></stop></linearGradient></defs><g transform="translate(900, 600)"><path d="M-216.3 0C-201.6 -24.8 -186.9 -49.6 -174.6 -72.3C-162.3 -95.1 -152.5 -115.7 -138.6 -138.6C-124.7 -161.5 -106.6 -186.5 -82.8 -199.9C-59 -213.2 -29.5 -214.8 0 -216.3L0 0Z" fill="#FA7268"></path></g><g transform="translate(0, 0)"><path d="M216.3 0C190.5 20.1 164.7 40.2 154.3 63.9C143.9 87.6 148.9 115 140 140C131.1 165 108.4 187.5 82.8 199.9C57.1 212.2 28.6 214.3 0 216.3L0 0Z" fill="#FA7268"></path></g></svg>