<svg id="visual" viewBox="0 0 900 600" width="900" height="600" xmlns="http://www.w3.org/2000/svg" xmlns:xlink="http://www.w3.org/1999/xlink" version="1.1"><rect x="0" y="0" width="900" height="600" fill="#f0f6fa"></rect><defs><linearGradient id="grad1_0" x1="33.3%" y1="100%" x2="100%" y2="0%"><stop offset="20%" stop-color="#f0f6fa" stop-opacity="1"></stop><stop offset="80%" stop-color="#f0f6fa" stop-opacity="1"></stop></linearGradient></defs><defs><linearGradient id="grad2_0" x1="0%" y1="100%" x2="66.7%" y2="0%"><stop offset="20%" stop-color="#f0f6fa" stop-opacity="1"></stop><stop offset="80%" stop-color="#f0f6fa" stop-opacity="1"></stop></linearGradient></defs><g transform="translate(900, 600)"><path d="M-324.5 0C-292 -34.5 -259.5 -69 -237.4 -98.3C-215.3 -127.7 -203.6 -152 -188.8 -188.8C-174 -225.6 -156.2 -275.1 -124.2 -299.8C-92.2 -324.5 -46.1 -324.5 0 -324.5L0 0Z" fill="#FA7268"></path></g><g transform="translate(0, 0)"><path d="M324.5 0C287.7 33 250.9 66.1 228.2 94.5C205.5 123 197 146.8 184.6 184.6C172.1 222.4 155.6 274.1 124.2 299.8C92.8 325.5 46.4 325 0 324.5L0 0Z" fill="#FA7268"></path></g></svg>