<?xml version="1.0" encoding="utf-8"?>
<!-- Generator: Adobe Illustrator 26.1.0, SVG Export Plug-In . SVG Version: 6.00 Build 0)  -->
<svg version="1.1" xmlns="http://www.w3.org/2000/svg" xmlns:xlink="http://www.w3.org/1999/xlink" x="0px" y="0px"
	 viewBox="0 0 500 500" style="enable-background:new 0 0 500 500;" xml:space="preserve">
<style type="text/css">
	.st0{fill:#EBEBEB;}
	.st1{fill:#F0F0F0;}
	.st2{fill:#FAFAFA;}
	.st3{fill:#E0E0E0;}
	.st4{fill:#F5F5F5;}
	.st5{fill:#407BFF;}
	.st6{opacity:0.9;fill:#FFFFFF;}
	.st7{opacity:0.3;fill:#FFFFFF;}
	.st8{opacity:0.2;}
	.st9{opacity:0.5;fill:#FFFFFF;}
	.st10{fill:#263238;}
	.st11{opacity:0.6;fill:#FFFFFF;}
	.st12{opacity:0.9;}
	.st13{opacity:0.3;}
	.st14{fill:#FFFFFF;}
	.st15{opacity:0.4;fill:#FFFFFF;}
	.st16{opacity:0.7;fill:#FFFFFF;}
	.st17{opacity:0.2;fill:#FFFFFF;}
	.st18{opacity:0.1;}
	.st19{opacity:0.5;}
	.st20{opacity:0.3;fill:#407BFF;}
	.st21{opacity:0.4;}
	.st22{fill:#FF8B7B;}
	.st23{display:none;}
	.st24{opacity:0.6;}
	.st25{fill:#EF0C52;}
	.st26{fill:#FF5652;}
	.st27{fill:#1A2E35;}
	.st28{opacity:0.2;fill:#1A2E35;}
	.st29{fill:#FF4363;}
	.st30{fill:#F43B56;}
	.st31{opacity:0.3;enable-background:new    ;}
	.st32{fill:#FF4370;}
	.st33{opacity:0.1;fill:#FFFFFF;}
</style>
<g id="Background_Complete">
	<g>
		<rect x="416.78" y="398.49" class="st0" width="33.12" height="0.25"/>
		<rect x="322.53" y="401.21" class="st0" width="8.69" height="0.25"/>
		<rect x="396.59" y="389.21" class="st0" width="19.19" height="0.25"/>
		<rect x="52.46" y="390.89" class="st0" width="43.19" height="0.25"/>
		<rect x="104.56" y="390.89" class="st0" width="6.33" height="0.25"/>
		<rect x="131.47" y="395.11" class="st0" width="93.68" height="0.25"/>
		<g>
			<path class="st0" d="M238.4,337.8H45.3c-3.15,0-5.71-2.56-5.71-5.71V60.66c0-3.15,2.56-5.71,5.71-5.71h193.1
				c3.15,0,5.71,2.56,5.71,5.71v271.43C244.11,335.24,241.55,337.8,238.4,337.8z M45.3,55.2c-3.01,0-5.46,2.45-5.46,5.46v271.43
				c0,3.01,2.45,5.46,5.46,5.46h193.1c3.01,0,5.46-2.45,5.46-5.46V60.66c0-3.01-2.45-5.46-5.46-5.46H45.3z"/>
			<path class="st0" d="M454.7,337.8H261.6c-3.15,0-5.71-2.56-5.71-5.71V60.66c0-3.15,2.56-5.71,5.71-5.71h193.1
				c3.15,0,5.71,2.56,5.71,5.71v271.43C460.41,335.24,457.85,337.8,454.7,337.8z M261.6,55.2c-3.01,0-5.46,2.45-5.46,5.46v271.43
				c0,3.01,2.45,5.46,5.46,5.46h193.1c3.01,0,5.46-2.45,5.46-5.46V60.66c0-3.01-2.45-5.46-5.46-5.46H261.6z"/>
		</g>
		<rect y="382.4" class="st0" width="500" height="0.25"/>
	</g>
	<g>
		<g>
			<rect x="324.11" y="125.99" class="st0" width="107.89" height="256.08"/>
			<rect x="328.7" y="130.63" class="st1" width="98.72" height="251.45"/>
			<rect x="336.17" y="140.86" class="st2" width="39.57" height="106.06"/>
			<rect x="380.9" y="140.86" class="st2" width="39.57" height="106.06"/>
			<rect x="336.17" y="283.73" class="st2" width="84.3" height="92.09"/>
			<rect x="337.43" y="252.65" class="st0" width="9.34" height="24.34"/>
			
				<rect x="346.78" y="252.65" transform="matrix(-1 -1.224647e-16 1.224647e-16 -1 695.3875 529.6516)" class="st3" width="1.84" height="24.34"/>
			<path class="st3" d="M343.69,262.22c0,2.18-1.76,3.94-3.94,3.94c-2.18,0-3.94-1.76-3.94-3.94s1.76-3.94,3.94-3.94
				C341.93,258.28,343.69,260.04,343.69,262.22z"/>
			<rect x="340.91" y="269.03" class="st3" width="2.03" height="4.93"/>
			<path class="st1" d="M352.52,262.22c0,1.34-11.63,2.42-12.96,2.42c-1.34,0-2.42-1.08-2.42-2.42s1.08-2.42,2.42-2.42
				C340.89,259.8,352.52,260.88,352.52,262.22z"/>
		</g>
		<g>
			<g>
				<polygon class="st4" points="85.66,93.05 73.67,110.11 73.67,231.78 167.18,231.78 167.18,93.05 				"/>
				<path class="st0" d="M85.66,93.05l-11.99,17.06c0,0-0.51,3.75,8.49,6.5C82.16,116.61,78.16,101.36,85.66,93.05z"/>
				
					<rect x="160.51" y="86.75" transform="matrix(0.7071 -0.7071 0.7071 0.7071 -19.918 143.9066)" class="st0" width="6.48" height="18.5"/>
				
					<rect x="73.59" y="219.36" transform="matrix(0.7071 -0.7071 0.7071 0.7071 -139.1474 121.2836)" class="st0" width="6.48" height="18.5"/>
				
					<rect x="160.51" y="219.36" transform="matrix(-0.7071 -0.7071 0.7071 -0.7071 117.8838 506.0451)" class="st0" width="6.48" height="18.5"/>
				<g>
					<rect x="93.24" y="116.59" class="st3" width="3.68" height="3.68"/>
					<polygon class="st3" points="96.92,120.26 96.91,120.26 93.24,120.26 89.57,120.26 89.57,123.94 93.24,123.94 96.91,123.94 
						96.92,123.94 100.58,123.94 100.58,120.26 					"/>
					<rect x="104.26" y="116.59" class="st0" width="3.68" height="3.68"/>
					<polygon class="st0" points="107.93,120.26 107.92,120.26 104.26,120.26 100.58,120.26 100.58,123.94 104.26,123.94 
						107.92,123.94 107.93,123.94 111.6,123.94 111.6,120.26 					"/>
					<polygon class="st3" points="96.92,123.94 96.91,123.94 93.24,123.94 89.57,123.94 85.89,123.94 85.89,127.61 89.57,127.61 
						93.24,127.61 96.91,127.61 96.92,127.61 100.58,127.61 100.58,123.94 					"/>
					<polygon class="st3" points="96.92,127.61 96.91,127.61 93.24,127.61 89.57,127.61 89.57,131.29 93.24,131.29 96.91,131.29 
						96.92,131.29 100.58,131.29 100.58,127.61 					"/>
					<polygon class="st0" points="107.93,127.61 107.92,127.61 104.26,127.61 100.58,127.61 100.58,131.29 104.26,131.29 
						107.92,131.29 107.93,131.29 111.6,131.29 111.6,127.61 					"/>
					<polygon class="st3" points="96.92,131.29 96.91,131.29 93.24,131.29 93.24,134.96 96.91,134.96 96.92,134.96 100.58,134.96 
						100.58,131.29 					"/>
					<polygon class="st0" points="104.26,131.29 100.58,131.29 100.58,134.96 104.26,134.96 107.93,134.96 107.93,131.29 					"/>
					<rect x="96.91" y="134.96" class="st3" width="3.68" height="3.68"/>
					<rect x="100.58" y="134.96" class="st0" width="3.68" height="3.68"/>
					<polygon class="st0" points="111.6,123.94 107.93,123.94 107.92,123.94 104.26,123.94 100.58,123.94 100.58,127.61 
						104.26,127.61 107.92,127.61 107.93,127.61 111.6,127.61 115.27,127.61 115.27,123.94 					"/>
				</g>
				<g>
					<rect x="84.06" y="140.36" class="st3" width="1.84" height="1.84"/>
					<polygon class="st3" points="85.9,142.2 85.89,142.2 84.06,142.2 82.22,142.2 82.22,144.04 84.06,144.04 85.89,144.04 
						85.9,144.04 87.73,144.04 87.73,142.2 					"/>
					<rect x="89.57" y="140.36" class="st0" width="1.84" height="1.84"/>
					<polygon class="st0" points="91.41,142.2 91.4,142.2 89.57,142.2 87.73,142.2 87.73,144.04 89.57,144.04 91.4,144.04 
						91.41,144.04 93.24,144.04 93.24,142.2 					"/>
					<polygon class="st3" points="85.9,144.04 85.89,144.04 84.06,144.04 82.22,144.04 80.39,144.04 80.39,145.88 82.22,145.88 
						84.06,145.88 85.89,145.88 85.9,145.88 87.73,145.88 87.73,144.04 					"/>
					<polygon class="st3" points="85.9,145.88 85.89,145.88 84.06,145.88 82.22,145.88 82.22,147.72 84.06,147.72 85.89,147.72 
						85.9,147.72 87.73,147.72 87.73,145.88 					"/>
					<polygon class="st0" points="91.41,145.88 91.4,145.88 89.57,145.88 87.73,145.88 87.73,147.72 89.57,147.72 91.4,147.72 
						91.41,147.72 93.24,147.72 93.24,145.88 					"/>
					<polygon class="st3" points="85.9,147.72 85.89,147.72 84.06,147.72 84.06,149.55 85.89,149.55 85.9,149.55 87.73,149.55 
						87.73,147.72 					"/>
					<polygon class="st0" points="89.57,147.72 87.73,147.72 87.73,149.55 89.57,149.55 91.41,149.55 91.41,147.72 					"/>
					<rect x="85.89" y="149.55" class="st3" width="1.84" height="1.84"/>
					<rect x="87.73" y="149.55" class="st0" width="1.84" height="1.84"/>
					<polygon class="st0" points="93.24,144.04 91.41,144.04 91.4,144.04 89.57,144.04 87.73,144.04 87.73,145.88 89.57,145.88 
						91.4,145.88 91.41,145.88 93.24,145.88 95.08,145.88 95.08,144.04 					"/>
				</g>
				<g>
					<rect x="104.35" y="147.72" class="st3" width="1.15" height="1.15"/>
					<polygon class="st3" points="105.5,148.86 105.49,148.86 104.35,148.86 103.2,148.86 103.2,150.01 104.35,150.01 
						105.49,150.01 105.5,150.01 106.64,150.01 106.64,148.86 					"/>
					<rect x="107.79" y="147.72" class="st0" width="1.15" height="1.15"/>
					<polygon class="st0" points="108.94,148.86 108.94,148.86 107.79,148.86 106.64,148.86 106.64,150.01 107.79,150.01 
						108.94,150.01 108.94,150.01 110.08,150.01 110.08,148.86 					"/>
					<polygon class="st3" points="105.5,150.01 105.49,150.01 104.35,150.01 103.2,150.01 102.05,150.01 102.05,151.16 
						103.2,151.16 104.35,151.16 105.49,151.16 105.5,151.16 106.64,151.16 106.64,150.01 					"/>
					<polygon class="st3" points="105.5,151.16 105.49,151.16 104.35,151.16 103.2,151.16 103.2,152.31 104.35,152.31 
						105.49,152.31 105.5,152.31 106.64,152.31 106.64,151.16 					"/>
					<polygon class="st0" points="108.94,151.16 108.94,151.16 107.79,151.16 106.64,151.16 106.64,152.31 107.79,152.31 
						108.94,152.31 108.94,152.31 110.08,152.31 110.08,151.16 					"/>
					<polygon class="st3" points="105.5,152.31 105.49,152.31 104.35,152.31 104.35,153.46 105.49,153.46 105.5,153.46 
						106.64,153.46 106.64,152.31 					"/>
					<polygon class="st0" points="107.79,152.31 106.64,152.31 106.64,153.46 107.79,153.46 108.94,153.46 108.94,152.31 					"/>
					<rect x="105.49" y="153.46" class="st3" width="1.15" height="1.15"/>
					<rect x="106.64" y="153.46" class="st0" width="1.15" height="1.15"/>
					<polygon class="st0" points="110.08,150.01 108.94,150.01 108.94,150.01 107.79,150.01 106.64,150.01 106.64,151.16 
						107.79,151.16 108.94,151.16 108.94,151.16 110.08,151.16 111.23,151.16 111.23,150.01 					"/>
				</g>
				<g>
					<path class="st0" d="M139.45,136.01c0,5.01-4.06,3.95-9.07,3.95c-5.01,0-9.07,1.06-9.07-3.95c0-5.01,4.06-9.07,9.07-9.07
						C135.39,126.94,139.45,131,139.45,136.01z"/>
					<g>
						<path class="st3" d="M133.89,137.24c0-0.51-1.57-0.92-3.51-0.92c-1.94,0-3.51,0.41-3.51,0.92l-0.9,6.83
							c0,0.64,1.97,1.15,4.41,1.15c2.43,0,4.41-0.52,4.41-1.15L133.89,137.24z"/>
					</g>
					<path class="st4" d="M121.5,134.18c0.66,0.47,1.45,0.75,2.32,0.75c2.21,0,4-1.79,4-4c0-1.23-0.57-2.32-1.44-3.05
						C123.91,129.11,122.07,131.41,121.5,134.18z"/>
					<path class="st4" d="M139.44,135.72c-0.09-2.76-1.4-5.2-3.41-6.81c-0.76,0.73-1.23,1.74-1.23,2.88c0,2.21,1.79,4,4,4
						C139.01,135.79,139.23,135.76,139.44,135.72z"/>
				</g>
				<g>
					<path class="st0" d="M152.41,126.72c-1.22,3.47-3.78,1.74-7.25,0.52c-3.47-1.22-6.54-1.48-5.32-4.95
						c1.22-3.47,5.03-5.29,8.5-4.06C151.81,119.44,153.63,123.25,152.41,126.72z"/>
					<g>
						<path class="st3" d="M148.26,126.21c0.12-0.35-0.86-1.02-2.21-1.49c-1.34-0.47-2.53-0.57-2.66-0.22l-2.29,4.51
							c-0.16,0.44,1.09,1.28,2.77,1.88c1.69,0.6,3.18,0.72,3.34,0.28L148.26,126.21z"/>
					</g>
					<path class="st4" d="M140.42,121.07c0.34,0.49,0.82,0.88,1.42,1.09c1.53,0.54,3.21-0.26,3.75-1.79
						c0.3-0.85,0.17-1.75-0.26-2.47C143.33,118.14,141.49,119.28,140.42,121.07z"/>
					<path class="st4" d="M152.47,126.52c0.61-1.93,0.3-3.94-0.7-5.55c-0.7,0.32-1.28,0.91-1.56,1.69
						c-0.54,1.53,0.26,3.21,1.79,3.75C152.16,126.46,152.31,126.49,152.47,126.52z"/>
				</g>
				<g>
					<path class="st2" d="M142.03,152.93c-5.42,0-10.11,3.12-12.39,7.65l1.39,2.1h2.78v0l1.88,2.08h2.26l1.62,1.83l2.46,0.22
						l-3.46,0.61l-0.78,1.52l-2.84,0.31l-1.33,1.79h-2.46l-1.51,2c2.29,4.53,6.97,7.65,12.39,7.65c7.67,0,13.88-6.22,13.88-13.88
						S149.7,152.93,142.03,152.93z"/>
					<path class="st3" d="M143.51,158.82c0.34,1.17-0.34,2.4-1.51,2.74c-1.17,0.34-2.4-0.34-2.74-1.51L143.51,158.82z"/>
					<path class="st3" d="M139.14,159.61c-0.34-1.17,0.34-2.4,1.51-2.74s2.4,0.34,2.74,1.51L139.14,159.61z"/>
					<path class="st3" d="M126.43,166.29h-1.29v-1.29c0-0.5-0.41-0.91-0.91-0.91l0,0c-0.5,0-0.91,0.41-0.91,0.91v1.29h-1.29
						c-0.5,0-0.91,0.41-0.91,0.91l0,0c0,0.5,0.41,0.91,0.91,0.91h1.29v1.29c0,0.5,0.41,0.91,0.91,0.91l0,0
						c0.5,0,0.91-0.41,0.91-0.91v-1.29h1.29c0.5,0,0.91-0.41,0.91-0.91l0,0C127.34,166.69,126.93,166.29,126.43,166.29z"/>
					<path class="st3" d="M113.89,166.29h-1.29v-1.29c0-0.5-0.41-0.91-0.91-0.91l0,0c-0.5,0-0.91,0.41-0.91,0.91v1.29h-1.29
						c-0.5,0-0.91,0.41-0.91,0.91l0,0c0,0.5,0.41,0.91,0.91,0.91h1.29v1.29c0,0.5,0.41,0.91,0.91,0.91l0,0
						c0.5,0,0.91-0.41,0.91-0.91v-1.29h1.29c0.5,0,0.91-0.41,0.91-0.91l0,0C114.79,166.69,114.39,166.29,113.89,166.29z"/>
					<path class="st3" d="M101.34,166.29h-1.29v-1.29c0-0.5-0.41-0.91-0.91-0.91l0,0c-0.5,0-0.91,0.41-0.91,0.91v1.29h-1.29
						c-0.5,0-0.91,0.41-0.91,0.91l0,0c0,0.5,0.41,0.91,0.91,0.91h1.29v1.29c0,0.5,0.41,0.91,0.91,0.91l0,0
						c0.5,0,0.91-0.41,0.91-0.91v-1.29h1.29c0.5,0,0.91-0.41,0.91-0.91l0,0C102.25,166.69,101.84,166.29,101.34,166.29z"/>
				</g>
			</g>
			<g>
				<rect x="110" y="183.81" class="st0" width="6.41" height="38.71"/>
				<polygon class="st0" points="118.7,222.78 107.29,222.78 110,220.74 116.42,220.74 				"/>
				<polygon class="st3" points="133.57,222.82 131.51,222.82 131.53,221.05 				"/>
				<polygon class="st3" points="131.53,184.19 131.51,222.82 118.7,222.78 116.42,220.74 116.42,184.12 				"/>
			</g>
		</g>
	</g>
</g>
<g id="Background_Simple">
	<g>
		<path class="st5" d="M386.17,290.65c-5.18,33.75,16.31,83.35-26.67,102.18c-57.4,25.14-93.37-38.5-139.95-50.15
			c-35.58-8.9-97.07,55.7-141.38,14.69c-44.36-41.05,30.31-96.98,33.12-130.37c2.78-33.04-59.05-90.58-9.45-125.67
			c48.64-34.4,103.97,31.31,150.02,43.58c40.86,10.89,140.14-40.88,169.66,9.87C449.48,202.84,391.17,258.07,386.17,290.65z"/>
		<path class="st6" d="M386.17,290.65c-5.18,33.75,16.31,83.35-26.67,102.18c-57.4,25.14-93.37-38.5-139.95-50.15
			c-35.58-8.9-97.07,55.7-141.38,14.69c-44.36-41.05,30.31-96.98,33.12-130.37c2.78-33.04-59.05-90.58-9.45-125.67
			c48.64-34.4,103.97,31.31,150.02,43.58c40.86,10.89,140.14-40.88,169.66,9.87C449.48,202.84,391.17,258.07,386.17,290.65z"/>
	</g>
</g>
<g id="Shadow">
	<ellipse id="_x3C_Path_x3E__1_" class="st4" cx="245.18" cy="412.39" rx="193.89" ry="11.32"/>
</g>
<g id="Character_Model">
	<g>
		<g>
			<rect x="203.46" y="92.35" class="st5" width="87.52" height="93.76"/>
			<rect x="206.72" y="95.61" class="st6" width="81.01" height="87.26"/>
		</g>
		<g>
			<path class="st5" d="M215.78,90.46c-0.22,0-1.07,0-1.29,0c-1.95,0-3.52,1.58-3.52,3.52c0,1.95,1.58,3.52,3.52,3.52
				c0.22,0,1.07,0,1.29,0c1.95,0,3.52-1.58,3.52-3.52C219.3,92.03,217.73,90.46,215.78,90.46z"/>
			<path class="st7" d="M215.78,90.46c-0.22,0-1.07,0-1.29,0c-1.95,0-3.52,1.58-3.52,3.52c0,1.95,1.58,3.52,3.52,3.52
				c0.22,0,1.07,0,1.29,0c1.95,0,3.52-1.58,3.52-3.52C219.3,92.03,217.73,90.46,215.78,90.46z"/>
			<path class="st8" d="M218.02,93.98c0,1.95-1.58,3.52-3.52,3.52c-1.95,0-3.52-1.58-3.52-3.52c0-1.95,1.58-3.52,3.52-3.52
				C216.44,90.46,218.02,92.03,218.02,93.98z"/>
		</g>
		<g>
			<path class="st5" d="M290.54,115.82c-0.22,0-1.07,0-1.29,0c-1.95,0-3.52,1.58-3.52,3.52c0,1.95,1.58,3.52,3.52,3.52
				c0.22,0,1.07,0,1.29,0c1.95,0,3.52-1.58,3.52-3.52C294.07,117.4,292.49,115.82,290.54,115.82z"/>
			<path class="st7" d="M290.54,115.82c-0.22,0-1.07,0-1.29,0c-1.95,0-3.52,1.58-3.52,3.52c0,1.95,1.58,3.52,3.52,3.52
				c0.22,0,1.07,0,1.29,0c1.95,0,3.52-1.58,3.52-3.52C294.07,117.4,292.49,115.82,290.54,115.82z"/>
			<path class="st8" d="M292.78,119.34c0,1.95-1.58,3.52-3.52,3.52c-1.95,0-3.52-1.58-3.52-3.52c0-1.95,1.58-3.52,3.52-3.52
				C291.2,115.82,292.78,117.4,292.78,119.34z"/>
		</g>
		<g>
			<g>
				<path class="st5" d="M209.12,100.17v80.48h44.18v-80.48H209.12z M244.57,100.71h8.19v8.19h-8.19V100.71z M244.57,109.61h8.19
					v8.19h-8.19V109.61z M244.57,118.51h8.19v8.19h-8.19V118.51z M244.57,127.41h8.19v8.19h-8.19V127.41z M244.57,136.31h8.19v8.18
					h-8.19V136.31z M244.57,145.22h8.19v8.19h-8.19V145.22z M244.57,154.12h8.19v8.19h-8.19V154.12z M244.57,163.02h8.19v8.19h-8.19
					V163.02z M217.84,171.2h-8.18v-8.19h8.18V171.2z M217.84,162.3h-8.18v-8.19h8.18V162.3z M217.84,153.4h-8.18v-8.19h8.18V153.4z
					 M217.84,144.5h-8.18v-8.18h8.18V144.5z M217.84,135.6h-8.18v-8.19h8.18V135.6z M217.84,126.7h-8.18v-8.19h8.18V126.7z
					 M217.84,117.79h-8.18v-8.19h8.18V117.79z M226.57,171.2h-8.19v-8.19h8.19V171.2z M235.3,118.51v8.19h-8.18v-8.19H235.3z
					 M235.3,127.41v8.19h-8.18v-8.19H235.3z M235.3,136.31v8.18h-8.18v-8.18H235.3z M235.3,145.22v8.19h-8.18v-8.19H235.3z
					 M235.3,154.12v8.19h-8.18v-8.19H235.3z M235.3,117.79h-8.18v-8.19h8.18V117.79z M226.57,117.79h-8.19v-8.19h8.19V117.79z
					 M226.57,126.7h-8.19v-8.19h8.19V126.7z M226.57,135.6h-8.19v-8.19h8.19V135.6z M226.57,144.5h-8.19v-8.18h8.19V144.5z
					 M226.57,153.4h-8.19v-8.19h8.19V153.4z M226.57,162.3h-8.19v-8.19h8.19V162.3z M227.11,163.02h8.18v8.19h-8.18V163.02z
					 M235.84,163.02h8.19v8.19h-8.19V163.02z M235.84,154.12h8.19v8.19h-8.19V154.12z M235.84,145.22h8.19v8.19h-8.19V145.22z
					 M235.84,136.31h8.19v8.18h-8.19V136.31z M235.84,127.41h8.19v8.19h-8.19V127.41z M235.84,118.51h8.19v8.19h-8.19V118.51z
					 M235.84,109.61h8.19v8.19h-8.19V109.61z M235.84,100.71h8.19v8.19h-8.19V100.71z M227.11,100.71h8.18v8.19h-8.18V100.71z
					 M218.39,100.71h8.19v8.19h-8.19V100.71z M209.66,100.71h8.18v8.19h-8.18V100.71z M217.84,180.1h-8.18v-8.18h8.18V180.1z
					 M226.57,180.1h-8.19v-8.18h8.19V180.1z M235.3,180.1h-8.18v-8.18h8.18V180.1z M244.03,180.1h-8.19v-8.18h8.19V180.1z
					 M252.75,180.1h-8.19v-8.18h8.19V180.1z"/>
				<path class="st9" d="M209.12,100.17v80.48h44.18v-80.48H209.12z M244.57,100.71h8.19v8.19h-8.19V100.71z M244.57,109.61h8.19
					v8.19h-8.19V109.61z M244.57,118.51h8.19v8.19h-8.19V118.51z M244.57,127.41h8.19v8.19h-8.19V127.41z M244.57,136.31h8.19v8.18
					h-8.19V136.31z M244.57,145.22h8.19v8.19h-8.19V145.22z M244.57,154.12h8.19v8.19h-8.19V154.12z M244.57,163.02h8.19v8.19h-8.19
					V163.02z M217.84,171.2h-8.18v-8.19h8.18V171.2z M217.84,162.3h-8.18v-8.19h8.18V162.3z M217.84,153.4h-8.18v-8.19h8.18V153.4z
					 M217.84,144.5h-8.18v-8.18h8.18V144.5z M217.84,135.6h-8.18v-8.19h8.18V135.6z M217.84,126.7h-8.18v-8.19h8.18V126.7z
					 M217.84,117.79h-8.18v-8.19h8.18V117.79z M226.57,171.2h-8.19v-8.19h8.19V171.2z M235.3,118.51v8.19h-8.18v-8.19H235.3z
					 M235.3,127.41v8.19h-8.18v-8.19H235.3z M235.3,136.31v8.18h-8.18v-8.18H235.3z M235.3,145.22v8.19h-8.18v-8.19H235.3z
					 M235.3,154.12v8.19h-8.18v-8.19H235.3z M235.3,117.79h-8.18v-8.19h8.18V117.79z M226.57,117.79h-8.19v-8.19h8.19V117.79z
					 M226.57,126.7h-8.19v-8.19h8.19V126.7z M226.57,135.6h-8.19v-8.19h8.19V135.6z M226.57,144.5h-8.19v-8.18h8.19V144.5z
					 M226.57,153.4h-8.19v-8.19h8.19V153.4z M226.57,162.3h-8.19v-8.19h8.19V162.3z M227.11,163.02h8.18v8.19h-8.18V163.02z
					 M235.84,163.02h8.19v8.19h-8.19V163.02z M235.84,154.12h8.19v8.19h-8.19V154.12z M235.84,145.22h8.19v8.19h-8.19V145.22z
					 M235.84,136.31h8.19v8.18h-8.19V136.31z M235.84,127.41h8.19v8.19h-8.19V127.41z M235.84,118.51h8.19v8.19h-8.19V118.51z
					 M235.84,109.61h8.19v8.19h-8.19V109.61z M235.84,100.71h8.19v8.19h-8.19V100.71z M227.11,100.71h8.18v8.19h-8.18V100.71z
					 M218.39,100.71h8.19v8.19h-8.19V100.71z M209.66,100.71h8.18v8.19h-8.18V100.71z M217.84,180.1h-8.18v-8.18h8.18V180.1z
					 M226.57,180.1h-8.19v-8.18h8.19V180.1z M235.3,180.1h-8.18v-8.18h8.18V180.1z M244.03,180.1h-8.19v-8.18h8.19V180.1z
					 M252.75,180.1h-8.19v-8.18h8.19V180.1z"/>
			</g>
			<g>
				<polygon class="st10" points="233.44,113.56 229.36,113.56 229.99,106.08 232.8,106.08 				"/>
				<polygon class="st9" points="233.44,113.56 229.36,113.56 229.99,106.08 232.8,106.08 				"/>
				<polygon class="st5" points="232.99,111.11 229.81,111.11 228.66,104.52 234.13,104.52 				"/>
				<polygon class="st9" points="232.99,111.11 229.81,111.11 228.66,104.52 234.13,104.52 				"/>
				<polygon class="st5" points="229.24,101.37 233.56,101.37 234.13,104.52 228.66,104.52 				"/>
				<polygon class="st7" points="229.24,101.37 233.56,101.37 234.13,104.52 228.66,104.52 				"/>
				<g>
					<polygon class="st5" points="225.9,128.41 236.89,128.41 237.37,135.52 225.42,135.52 					"/>
					<polygon class="st7" points="225.9,128.41 236.89,128.41 237.37,135.52 225.42,135.52 					"/>
				</g>
				<g>
					<polygon class="st5" points="229.49,151.89 225.1,151.89 224.5,159.6 225.11,174.56 227.59,174.56 230.09,158.32 					"/>
					<polygon class="st7" points="229.49,151.89 225.1,151.89 224.5,159.6 225.11,174.56 227.59,174.56 230.09,158.32 					"/>
				</g>
				<g>
					<polygon class="st5" points="225.42,135.52 225.1,151.89 229.49,151.89 231.4,135.52 					"/>
					<polygon class="st9" points="225.42,135.52 225.1,151.89 229.49,151.89 231.4,135.52 					"/>
				</g>
				<g>
					<polygon class="st5" points="233.39,151.89 237.77,151.89 238.37,159.6 237.76,174.56 235.29,174.56 232.79,158.32 					"/>
					<polygon class="st7" points="233.39,151.89 237.77,151.89 238.37,159.6 237.76,174.56 235.29,174.56 232.79,158.32 					"/>
				</g>
				<g>
					<polygon class="st5" points="237.45,135.52 237.77,151.89 233.39,151.89 231.47,135.52 					"/>
					<polygon class="st9" points="237.45,135.52 237.77,151.89 233.39,151.89 231.47,135.52 					"/>
				</g>
				<g>
					<polygon class="st5" points="236.89,128.41 225.9,128.41 224.79,112.39 238.01,112.39 					"/>
					<polygon class="st7" points="236.89,128.41 225.9,128.41 224.79,112.39 238.01,112.39 					"/>
					<polygon class="st7" points="225.9,128.41 231.4,120.4 236.89,128.41 					"/>
				</g>
				<g>
					<polygon class="st10" points="220.87,177.63 225.11,174.56 227.59,174.56 226.15,179.45 					"/>
					<polygon class="st9" points="220.87,177.63 225.11,174.56 227.59,174.56 226.15,179.45 					"/>
					<rect x="220.87" y="177.63" class="st10" width="5.28" height="1.81"/>
					<rect x="220.87" y="177.63" class="st7" width="5.28" height="1.81"/>
				</g>
				<g>
					<polygon class="st10" points="242,177.63 237.76,174.56 235.29,174.56 236.72,179.45 					"/>
					<polygon class="st9" points="242,177.63 237.76,174.56 235.29,174.56 236.72,179.45 					"/>
					
						<rect x="236.72" y="177.63" transform="matrix(-1 -1.224647e-16 1.224647e-16 -1 478.7187 357.0795)" class="st10" width="5.28" height="1.81"/>
					
						<rect x="236.72" y="177.63" transform="matrix(-1 -1.224647e-16 1.224647e-16 -1 478.7187 357.0795)" class="st7" width="5.28" height="1.81"/>
				</g>
				<g>
					<polygon class="st5" points="222.97,124.88 219.83,124.88 222.37,112.39 226.15,112.39 					"/>
					<polygon class="st10" points="222.97,124.88 219.83,124.88 219.02,129.05 218.78,136.99 221.52,136.99 222.9,129.05 					"/>
					<polygon class="st10" points="221.52,136.99 218.78,136.99 218.36,140 219.29,141.46 221.05,140.71 221.97,139.34 					"/>
					<polygon class="st9" points="222.97,124.88 219.83,124.88 222.37,112.39 226.15,112.39 					"/>
					<polygon class="st11" points="222.97,124.88 219.83,124.88 219.02,129.05 218.78,136.99 221.52,136.99 222.9,129.05 					"/>
					<polygon class="st9" points="221.52,136.99 218.78,136.99 218.36,140 219.29,141.46 221.05,140.71 221.97,139.34 					"/>
					<g>
						<polygon class="st10" points="226.5,116.58 222.2,116.58 221.57,111.73 227.14,111.73 						"/>
						<polygon class="st10" points="221.57,111.73 218.78,116.58 220.87,117.54 222.2,116.58 						"/>
						<polygon class="st9" points="226.5,116.58 222.2,116.58 221.57,111.73 227.14,111.73 						"/>
						<polygon class="st11" points="221.57,111.73 218.78,116.58 220.87,117.54 222.2,116.58 						"/>
					</g>
				</g>
				<g>
					<polygon class="st5" points="239.44,124.88 242.59,124.88 240.04,112.39 236.26,112.39 					"/>
					<polygon class="st9" points="239.44,124.88 242.59,124.88 240.04,112.39 236.26,112.39 					"/>
					<polygon class="st10" points="239.44,124.88 242.59,124.88 243.39,129.05 243.64,136.99 240.89,136.99 239.52,129.05 					"/>
					<polygon class="st11" points="239.44,124.88 242.59,124.88 243.39,129.05 243.64,136.99 240.89,136.99 239.52,129.05 					"/>
					<polygon class="st10" points="240.89,136.99 243.64,136.99 244.05,140 243.12,141.46 241.37,140.71 240.44,139.34 					"/>
					<polygon class="st9" points="240.89,136.99 243.64,136.99 244.05,140 243.12,141.46 241.37,140.71 240.44,139.34 					"/>
					<g>
						<polygon class="st10" points="235.9,116.58 240.2,116.58 240.83,111.73 235.26,111.73 						"/>
						<polygon class="st9" points="235.9,116.58 240.2,116.58 240.83,111.73 235.26,111.73 						"/>
						<polygon class="st10" points="240.83,111.73 243.62,116.58 241.53,117.54 240.2,116.58 						"/>
						<polygon class="st11" points="240.83,111.73 243.62,116.58 241.53,117.54 240.2,116.58 						"/>
					</g>
				</g>
			</g>
		</g>
		<g>
			<g>
				<g class="st12">
					<rect x="276.87" y="112.36" class="st10" width="4.82" height="1.37"/>
					<rect x="259.84" y="112.36" class="st10" width="4.38" height="1.37"/>
					<rect x="266.83" y="112.36" class="st10" width="5.15" height="1.37"/>
					<rect x="272.77" y="112.36" class="st10" width="3.25" height="1.37"/>
				</g>
				<g class="st12">
					<g>
						<rect x="259.84" y="109.34" class="st10" width="4.38" height="1.37"/>
						<rect x="266.83" y="109.34" class="st10" width="2.54" height="1.37"/>
						<rect x="275.3" y="109.34" class="st10" width="4.38" height="1.37"/>
						<rect x="270.15" y="109.34" class="st10" width="4.38" height="1.37"/>
					</g>
					<g>
						<rect x="266.83" y="115.37" class="st10" width="3.51" height="1.37"/>
						<rect x="271.19" y="115.37" class="st10" width="4.82" height="1.37"/>
						<rect x="276.87" y="115.37" class="st10" width="3.45" height="1.37"/>
						<rect x="259.84" y="115.37" class="st10" width="4.38" height="1.37"/>
					</g>
				</g>
			</g>
			<g class="st13">
				<g class="st12">
					<rect x="276.87" y="112.36" class="st14" width="4.82" height="1.37"/>
					<rect x="259.84" y="112.36" class="st14" width="4.38" height="1.37"/>
					<rect x="266.83" y="112.36" class="st14" width="5.15" height="1.37"/>
					<rect x="272.77" y="112.36" class="st14" width="3.25" height="1.37"/>
				</g>
				<g class="st12">
					<g>
						<rect x="259.84" y="109.34" class="st14" width="4.38" height="1.37"/>
						<rect x="266.83" y="109.34" class="st14" width="2.54" height="1.37"/>
						<rect x="275.3" y="109.34" class="st14" width="4.38" height="1.37"/>
						<rect x="270.15" y="109.34" class="st14" width="4.38" height="1.37"/>
					</g>
					<g>
						<rect x="266.83" y="115.37" class="st14" width="3.51" height="1.37"/>
						<rect x="271.19" y="115.37" class="st14" width="4.82" height="1.37"/>
						<rect x="276.87" y="115.37" class="st14" width="3.45" height="1.37"/>
						<rect x="259.84" y="115.37" class="st14" width="4.38" height="1.37"/>
					</g>
				</g>
			</g>
		</g>
	</g>
</g>
<g id="Gun_Model">
	<g>
		<g>
			<rect x="263.37" y="131.97" class="st5" width="66.07" height="41.53"/>
			<rect x="266.39" y="134.98" class="st6" width="60.04" height="35.5"/>
		</g>
		<g>
			<g>
				<g>
					<path class="st10" d="M307.68,158.62h-9.31c-1.87,0-3.57-1.18-4.24-2.93l-1.94-5.12l1.76-0.66l1.94,5.12
						c0.39,1.02,1.38,1.71,2.48,1.71h9.31V158.62z"/>
				</g>
				<polygon class="st10" points="301.33,150.24 300.31,154.36 302.03,154.36 304.39,150.24 				"/>
			</g>
			<g class="st8">
				<g>
					<path class="st14" d="M307.68,158.62h-9.31c-1.87,0-3.57-1.18-4.24-2.93l-1.94-5.12l1.76-0.66l1.94,5.12
						c0.39,1.02,1.38,1.71,2.48,1.71h9.31V158.62z"/>
				</g>
				<polygon class="st14" points="301.33,150.24 300.31,154.36 302.03,154.36 304.39,150.24 				"/>
			</g>
			<polygon class="st10" points="316.9,165.12 309.09,165.12 304.39,150.24 312.2,150.24 			"/>
			<polygon class="st15" points="316.9,165.12 309.09,165.12 304.39,150.24 312.2,150.24 			"/>
			<path class="st5" d="M311.53,163.55L311.53,163.55c-0.46,0-0.87-0.3-1.01-0.74l-2.23-7.07c-0.22-0.68,0.29-1.38,1.01-1.38l0,0
				c0.46,0,0.87,0.3,1.01,0.74l2.23,7.07C312.76,162.85,312.25,163.55,311.53,163.55z"/>
			<polygon class="st10" points="317.84,167.82 308.15,167.82 309.09,165.12 316.9,165.12 			"/>
			<polygon class="st16" points="317.84,167.82 308.15,167.82 309.09,165.12 316.9,165.12 			"/>
			<g>
				<rect x="274.87" y="142.18" class="st10" width="2.14" height="7.12"/>
				<rect x="274.87" y="142.18" class="st17" width="2.14" height="7.12"/>
			</g>
			<g>
				<polygon class="st10" points="277.02,137.65 277.02,140.79 282.04,140.79 282.04,139.34 279.03,137.65 				"/>
				<polygon class="st16" points="277.02,137.65 277.02,140.79 282.04,140.79 282.04,139.34 279.03,137.65 				"/>
			</g>
			<g>
				<rect x="277.02" y="140.79" class="st10" width="33.9" height="7.09"/>
				<rect x="277.02" y="140.79" class="st11" width="33.9" height="7.09"/>
			</g>
			<g>
				<rect x="277.02" y="147.88" class="st10" width="38.93" height="3.54"/>
				<rect x="277.02" y="147.88" class="st15" width="38.93" height="3.54"/>
				<g>
					<polygon class="st10" points="315.95,147.88 310.92,147.88 310.92,140.79 315.95,143.61 					"/>
					<polygon class="st16" points="315.95,147.88 310.92,147.88 310.92,140.79 315.95,143.61 					"/>
				</g>
			</g>
			<polygon class="st5" points="282.46,146.26 280.82,146.26 281.76,142.81 283.4,142.81 			"/>
			<polygon class="st5" points="285.05,146.26 283.4,146.26 284.34,142.81 285.99,142.81 			"/>
			<polygon class="st5" points="287.63,146.26 285.99,146.26 286.93,142.81 288.57,142.81 			"/>
			<polygon class="st5" points="290.21,146.26 288.57,146.26 289.51,142.81 291.15,142.81 			"/>
			<path class="st5" d="M314.02,147.88c0,2.82-2.29,5.1-5.1,5.1c-2.82,0-5.1-2.29-5.1-5.1c0-2.82,2.29-5.1,5.1-5.1
				C311.74,142.78,314.02,145.06,314.02,147.88z"/>
			<path class="st9" d="M314.02,147.88c0,2.82-2.29,5.1-5.1,5.1c-2.82,0-5.1-2.29-5.1-5.1c0-2.82,2.29-5.1,5.1-5.1
				C311.74,142.78,314.02,145.06,314.02,147.88z"/>
			<path class="st5" d="M311.7,147.88c0,1.54-1.25,2.78-2.78,2.78c-1.54,0-2.78-1.25-2.78-2.78c0-1.54,1.25-2.78,2.78-2.78
				C310.45,145.1,311.7,146.34,311.7,147.88z"/>
			
				<rect x="308.28" y="146.31" transform="matrix(0.7071 0.7071 -0.7071 0.7071 195.0292 -175.1171)" class="st6" width="1.27" height="3.15"/>
		</g>
		<g>
			<path class="st5" d="M275.52,129.94c-0.22,0-1.07,0-1.29,0c-1.95,0-3.52,1.58-3.52,3.52s1.58,3.52,3.52,3.52
				c0.22,0,1.07,0,1.29,0c1.95,0,3.52-1.58,3.52-3.52S277.46,129.94,275.52,129.94z"/>
			<path class="st7" d="M275.52,129.94c-0.22,0-1.07,0-1.29,0c-1.95,0-3.52,1.58-3.52,3.52s1.58,3.52,3.52,3.52
				c0.22,0,1.07,0,1.29,0c1.95,0,3.52-1.58,3.52-3.52S277.46,129.94,275.52,129.94z"/>
			<path class="st8" d="M277.75,133.46c0,1.95-1.58,3.52-3.52,3.52c-1.95,0-3.52-1.58-3.52-3.52c0-1.95,1.58-3.52,3.52-3.52
				C276.18,129.94,277.75,131.51,277.75,133.46z"/>
		</g>
		<g>
			<path class="st5" d="M321.71,129.94c-0.22,0-1.07,0-1.29,0c-1.95,0-3.52,1.58-3.52,3.52s1.58,3.52,3.52,3.52
				c0.22,0,1.07,0,1.29,0c1.95,0,3.52-1.58,3.52-3.52S323.66,129.94,321.71,129.94z"/>
			<path class="st7" d="M321.71,129.94c-0.22,0-1.07,0-1.29,0c-1.95,0-3.52,1.58-3.52,3.52s1.58,3.52,3.52,3.52
				c0.22,0,1.07,0,1.29,0c1.95,0,3.52-1.58,3.52-3.52S323.66,129.94,321.71,129.94z"/>
			<path class="st8" d="M323.95,133.46c0,1.95-1.58,3.52-3.52,3.52c-1.95,0-3.52-1.58-3.52-3.52c0-1.95,1.58-3.52,3.52-3.52
				C322.37,129.94,323.95,131.51,323.95,133.46z"/>
		</g>
	</g>
</g>
<g id="Desk">
	<g>
		<g>
			<path class="st5" d="M393.74,414.9h1.34c1.03,0,1.86-0.83,1.86-1.86V287.3h-5.06v125.74C391.88,414.07,392.71,414.9,393.74,414.9
				z"/>
			<path class="st7" d="M393.74,414.9h1.34c1.03,0,1.86-0.83,1.86-1.86V287.3h-5.06v125.74C391.88,414.07,392.71,414.9,393.74,414.9
				z"/>
			<path class="st5" d="M393.32,394.26v-2.01c0-0.84-0.68-1.53-1.53-1.53h-87.96v5.06h87.96
				C392.64,395.79,393.32,395.1,393.32,394.26z"/>
			<path class="st15" d="M393.32,394.26v-2.01c0-0.84-0.68-1.53-1.53-1.53h-87.96v5.06h87.96
				C392.64,395.79,393.32,395.1,393.32,394.26z"/>
			<path class="st5" d="M304.27,414.9h1.34c1.03,0,1.86-0.83,1.86-1.86V287.3h-5.06v125.74C302.41,414.07,303.24,414.9,304.27,414.9
				z"/>
			<rect x="391.88" y="287.3" class="st8" width="5.06" height="4.56"/>
			<rect x="302.41" y="287.3" class="st8" width="5.06" height="4.56"/>
		</g>
		<g>
			
				<rect x="187.65" y="278.62" transform="matrix(-1 -1.224647e-16 1.224647e-16 -1 584.5838 565.9219)" class="st5" width="209.29" height="8.68"/>
			
				<rect x="187.65" y="278.62" transform="matrix(-1 -1.224647e-16 1.224647e-16 -1 584.5838 565.9219)" class="st7" width="209.29" height="8.68"/>
			
				<rect x="301.68" y="278.62" transform="matrix(-1 -1.224647e-16 1.224647e-16 -1 698.6197 565.9219)" class="st18" width="95.25" height="8.68"/>
			<g>
				
					<rect x="176.8" y="273.82" transform="matrix(-1 -1.224647e-16 1.224647e-16 -1 584.5839 553.0659)" class="st5" width="230.98" height="5.42"/>
				
					<rect x="176.8" y="273.82" transform="matrix(-1 -1.224647e-16 1.224647e-16 -1 584.5839 553.0659)" class="st9" width="230.98" height="5.42"/>
				
					<rect x="301.68" y="273.82" transform="matrix(-1 -1.224647e-16 1.224647e-16 -1 709.4652 553.0659)" class="st8" width="106.1" height="5.42"/>
			</g>
		</g>
		<path class="st7" d="M307.47,287.3h-5.06v125.58c0,1.12,0.9,2.02,2.02,2.02h1.02c1.12,0,2.02-0.9,2.02-2.02"/>
		<g>
			<path class="st5" d="M279.56,414.9h1.34c1.03,0,1.86-0.83,1.86-1.86V287.3h-5.06v125.74C277.7,414.07,278.53,414.9,279.56,414.9z
				"/>
			<path class="st7" d="M279.56,414.9h1.34c1.03,0,1.86-0.83,1.86-1.86V287.3h-5.06v125.74C277.7,414.07,278.53,414.9,279.56,414.9z
				"/>
			<path class="st5" d="M279.14,394.26v-2.01c0-0.84-0.68-1.53-1.53-1.53h-87.96v5.06h87.96
				C278.46,395.79,279.14,395.1,279.14,394.26z"/>
			<path class="st15" d="M279.14,394.26v-2.01c0-0.84-0.68-1.53-1.53-1.53h-87.96v5.06h87.96
				C278.46,395.79,279.14,395.1,279.14,394.26z"/>
			<path class="st5" d="M190.09,414.9h1.34c1.03,0,1.86-0.83,1.86-1.86V287.3h-5.06v125.74C188.23,414.07,189.06,414.9,190.09,414.9
				z"/>
			<rect x="277.7" y="287.3" class="st8" width="5.06" height="4.56"/>
			<rect x="188.23" y="287.3" class="st8" width="5.06" height="4.56"/>
		</g>
		<path class="st7" d="M193.29,287.3h-5.06v125.58c0,1.12,0.9,2.02,2.02,2.02h1.02c1.12,0,2.02-0.9,2.02-2.02"/>
	</g>
</g>
<g id="Device">
	<g>
		<g>
			<polygon class="st10" points="238.44,268.1 272.07,268.1 272.07,274.65 204.8,274.65 204.8,271.32 			"/>
			<polygon class="st16" points="238.44,268.1 272.07,268.1 272.07,274.65 204.8,274.65 204.8,271.32 			"/>
			<polygon class="st19" points="238.44,274.65 272.07,274.65 272.07,268.1 238.44,271.32 			"/>
		</g>
		<g>
			<rect x="346.67" y="325.94" class="st10" width="39.46" height="88.97"/>
			<rect x="346.67" y="325.94" class="st7" width="39.46" height="88.97"/>
			<rect x="313.91" y="325.94" class="st10" width="39.46" height="88.97"/>
			<rect x="313.91" y="325.94" class="st16" width="39.46" height="88.97"/>
			<polygon class="st15" points="338.61,351.59 328.68,351.59 313.91,325.94 353.38,325.94 			"/>
			<polygon class="st15" points="338.61,363.12 328.68,363.12 313.91,414.9 353.38,414.9 			"/>
			<rect x="328.68" y="351.59" class="st16" width="9.92" height="11.53"/>
			<g>
				<g>
					<path class="st5" d="M333.65,361.13c-0.95,0-1.85-0.37-2.52-1.05c-0.67-0.67-1.05-1.57-1.05-2.52c0-0.95,0.37-1.85,1.05-2.52
						l0.96,0.96c-0.42,0.42-0.65,0.98-0.65,1.57c0,0.59,0.23,1.15,0.65,1.57c0.84,0.84,2.29,0.84,3.13,0
						c0.42-0.42,0.65-0.97,0.65-1.57c0-0.59-0.23-1.15-0.65-1.57l0.96-0.96c0.67,0.67,1.05,1.57,1.05,2.52
						c0,0.95-0.37,1.85-1.05,2.52C335.5,360.76,334.6,361.13,333.65,361.13z"/>
				</g>
				<g>
					<rect x="332.97" y="353.58" class="st5" width="1.36" height="3.32"/>
				</g>
			</g>
		</g>
		<g>
			<g>
				<rect x="214.05" y="253.33" class="st10" width="4.56" height="17.53"/>
				<rect x="214.05" y="253.33" class="st7" width="4.56" height="17.53"/>
				<path class="st10" d="M221.69,267.33h-10.72c-0.46,0-0.92,0.09-1.35,0.26l-8.53,3.48c-1.35,0.55-2.23,1.86-2.23,3.32l0,0h34.94
					l0,0c0-1.46-0.88-2.77-2.23-3.32l-8.53-3.48C222.61,267.42,222.15,267.33,221.69,267.33z"/>
				<path class="st9" d="M221.69,267.33h-10.72c-0.46,0-0.92,0.09-1.35,0.26l-8.53,3.48c-1.35,0.55-2.23,1.86-2.23,3.32l0,0h34.94
					l0,0c0-1.46-0.88-2.77-2.23-3.32l-8.53-3.48C222.61,267.42,222.15,267.33,221.69,267.33z"/>
				<rect x="214.05" y="253.33" class="st18" width="4.56" height="6.43"/>
				<rect x="182.99" y="206.43" class="st10" width="66.68" height="49.24"/>
				<rect x="182.99" y="206.43" class="st9" width="66.68" height="49.24"/>
				<g>
					<polygon class="st10" points="249.67,255.66 252.09,253.49 252.09,208.6 249.67,206.43 					"/>
					<polygon class="st7" points="249.67,255.66 252.09,253.49 252.09,208.6 249.67,206.43 					"/>
				</g>
				<rect x="185.7" y="209.14" class="st5" width="61.26" height="42.73"/>
				<rect x="185.7" y="209.14" class="st15" width="61.26" height="42.73"/>
			</g>
			<g>
				<path class="st5" d="M221.67,234.37c-1.18,1.24-3.26,0.5-3.42-1.2c-0.36-3.77-0.89-6.03-0.1-7.98c1.14-2.81,4.34-4.17,7.15-3.04
					c2.81,1.14,4.17,4.34,3.04,7.15L221.67,234.37z"/>
				<path class="st5" d="M221.67,233.45c-1.18,1.24-3.26,0.5-3.42-1.2c-0.36-3.77-0.89-6.03-0.1-7.98c1.14-2.81,4.34-4.17,7.15-3.04
					c2.81,1.14,4.17,4.34,3.04,7.15L221.67,233.45z"/>
				<path class="st7" d="M221.67,233.45c-1.18,1.24-3.26,0.5-3.42-1.2c-0.36-3.77-0.89-6.03-0.1-7.98c1.14-2.81,4.34-4.17,7.15-3.04
					c2.81,1.14,4.17,4.34,3.04,7.15L221.67,233.45z"/>
				<path class="st5" d="M241.81,234.37c1.18,1.24,3.26,0.5,3.42-1.2c0.36-3.77,0.89-6.03,0.1-7.98c-1.14-2.81-4.34-4.17-7.15-3.04
					c-2.81,1.14-4.17,4.34-3.04,7.15L241.81,234.37z"/>
				<path class="st7" d="M241.6,233.45c1.18,1.24,3.26,0.5,3.42-1.2c0.36-3.77,0.89-6.03,0.1-7.98c-1.14-2.81-4.34-4.17-7.15-3.04
					c-2.81,1.14-4.17,4.34-3.04,7.15L241.6,233.45z"/>
				<g>
					<g>
						<rect x="223.24" y="226.91" class="st5" width="16.65" height="4.63"/>
						<rect x="223.24" y="226.91" class="st7" width="16.65" height="4.63"/>
						<rect x="223.24" y="221.15" class="st5" width="16.65" height="7.95"/>
						<rect x="223.24" y="221.15" class="st11" width="16.65" height="7.95"/>
					</g>
				</g>
				<path class="st5" d="M228.34,228.39c-1.14,2.81-4.34,4.17-7.15,3.04c-2.81-1.14-4.17-4.34-3.04-7.15
					c1.14-2.81,4.34-4.17,7.15-3.04C228.11,222.37,229.47,225.57,228.34,228.39z"/>
				<path class="st16" d="M228.34,228.39c-1.14,2.81-4.34,4.17-7.15,3.04c-2.81-1.14-4.17-4.34-3.04-7.15
					c1.14-2.81,4.34-4.17,7.15-3.04C228.11,222.37,229.47,225.57,228.34,228.39z"/>
				<path class="st5" d="M226.46,226.27c0,1.8-1.46,3.25-3.25,3.25c-1.8,0-3.25-1.46-3.25-3.25s1.46-3.25,3.25-3.25
					C225.01,223.02,226.46,224.47,226.46,226.27z"/>
				<path class="st13" d="M226.46,226.27c0,1.8-1.46,3.25-3.25,3.25c-1.8,0-3.25-1.46-3.25-3.25s1.46-3.25,3.25-3.25
					C225.01,223.02,226.46,224.47,226.46,226.27z"/>
				<path class="st5" d="M234.82,228.39c1.14,2.81,4.34,4.17,7.15,3.04c2.81-1.14,4.17-4.34,3.04-7.15
					c-1.14-2.81-4.34-4.17-7.15-3.04C235.04,222.37,233.69,225.57,234.82,228.39z"/>
				<path class="st16" d="M234.82,228.39c1.14,2.81,4.34,4.17,7.15,3.04c2.81-1.14,4.17-4.34,3.04-7.15
					c-1.14-2.81-4.34-4.17-7.15-3.04C235.04,222.37,233.69,225.57,234.82,228.39z"/>
				<rect x="230.12" y="223.9" class="st5" width="2.89" height="0.85"/>
				<g>
					<path class="st5" d="M238.39,225.11c0.09,0.48-0.22,0.94-0.69,1.03c-0.48,0.09-0.94-0.22-1.03-0.69
						c-0.09-0.48,0.22-0.94,0.69-1.03C237.84,224.33,238.3,224.64,238.39,225.11z"/>
					<path class="st5" d="M240.47,224.61c0.09,0.48-0.22,0.94-0.69,1.03c-0.48,0.09-0.94-0.22-1.03-0.69
						c-0.09-0.48,0.22-0.94,0.69-1.03C239.92,223.83,240.38,224.14,240.47,224.61z"/>
					<path class="st5" d="M238.93,227.86c0.09,0.48-0.22,0.94-0.69,1.03c-0.48,0.09-0.94-0.22-1.03-0.69
						c-0.09-0.48,0.22-0.94,0.69-1.03C238.37,227.08,238.83,227.39,238.93,227.86z"/>
					<path class="st5" d="M241.01,227.37c0.09,0.48-0.22,0.94-0.69,1.03c-0.48,0.09-0.94-0.22-1.03-0.69
						c-0.09-0.48,0.22-0.94,0.69-1.03C240.46,226.58,240.92,226.89,241.01,227.37z"/>
					<path class="st5" d="M242.58,224.17c0.09,0.48-0.22,0.94-0.69,1.03c-0.48,0.09-0.94-0.22-1.03-0.69
						c-0.09-0.48,0.22-0.94,0.69-1.03C242.03,223.38,242.49,223.69,242.58,224.17z"/>
					<path class="st5" d="M243.12,226.92c0.09,0.48-0.22,0.94-0.69,1.03c-0.48,0.09-0.94-0.22-1.03-0.69
						c-0.09-0.48,0.22-0.94,0.69-1.03C242.57,226.13,243.03,226.44,243.12,226.92z"/>
				</g>
				<path class="st20" d="M225.14,226.25c0,1.07-0.86,1.93-1.93,1.93c-1.07,0-1.93-0.86-1.93-1.93c0-1.07,0.86-1.93,1.93-1.93
					C224.28,224.32,225.14,225.19,225.14,226.25z"/>
			</g>
			<g>
				<rect x="188.39" y="214.57" class="st10" width="27.93" height="32.36"/>
				<rect x="188.39" y="214.57" class="st9" width="27.93" height="32.36"/>
				<rect x="189.2" y="216.93" width="26.31" height="28.86"/>
				<g>
					<rect x="192.62" y="220.03" class="st5" width="3.9" height="1.22"/>
					<rect x="197.21" y="220.03" class="st5" width="3.9" height="1.22"/>
					<rect x="206.4" y="220.03" class="st5" width="3.9" height="1.22"/>
					<rect x="207.8" y="222.72" class="st5" width="4.3" height="1.22"/>
					<rect x="199.16" y="225.4" class="st5" width="2.81" height="1.22"/>
					<rect x="202.74" y="225.4" class="st5" width="4.3" height="1.22"/>
					<rect x="207.8" y="225.4" class="st5" width="3.08" height="1.22"/>
					<rect x="197.68" y="230.77" class="st5" width="5.32" height="1.22"/>
					<rect x="203.76" y="230.77" class="st5" width="3.28" height="1.22"/>
					<rect x="203.71" y="236.14" class="st5" width="4.3" height="1.22"/>
					<rect x="208.77" y="236.14" class="st5" width="3.32" height="1.22"/>
					<rect x="192.62" y="241.51" class="st5" width="4.3" height="1.22"/>
					<g>
						<g>
							<rect x="196.52" y="222.72" class="st5" width="6.86" height="1.22"/>
							<rect x="196.9" y="228.08" class="st5" width="5.07" height="1.22"/>
							<rect x="207.8" y="230.77" class="st5" width="4.3" height="1.22"/>
							<rect x="196.7" y="233.45" class="st5" width="4.3" height="1.22"/>
							<rect x="201.76" y="233.45" class="st5" width="4.3" height="1.22"/>
							<rect x="192.62" y="236.14" class="st5" width="4.3" height="1.22"/>
							<rect x="202.74" y="238.82" class="st5" width="3.32" height="1.22"/>
							<rect x="206.82" y="238.82" class="st5" width="5.28" height="1.22"/>
							<rect x="197.68" y="241.51" class="st5" width="5.28" height="1.22"/>
						</g>
						<g class="st19">
							<rect x="196.52" y="222.72" class="st14" width="6.86" height="1.22"/>
							<rect x="196.9" y="228.08" class="st14" width="5.07" height="1.22"/>
							<rect x="207.8" y="230.77" class="st14" width="4.3" height="1.22"/>
							<rect x="196.7" y="233.45" class="st14" width="4.3" height="1.22"/>
							<rect x="201.76" y="233.45" class="st14" width="4.3" height="1.22"/>
							<rect x="192.62" y="236.14" class="st14" width="4.3" height="1.22"/>
							<rect x="202.74" y="238.82" class="st14" width="3.32" height="1.22"/>
							<rect x="206.82" y="238.82" class="st14" width="5.28" height="1.22"/>
							<rect x="197.68" y="241.51" class="st14" width="5.28" height="1.22"/>
						</g>
					</g>
					<g>
						<g>
							<rect x="201.81" y="220.03" class="st5" width="3.9" height="1.22"/>
							<rect x="204.14" y="222.72" class="st5" width="2.9" height="1.22"/>
							<rect x="192.62" y="225.4" class="st5" width="5.79" height="1.22"/>
							<rect x="202.74" y="228.08" class="st5" width="5.24" height="1.22"/>
							<rect x="208.74" y="228.08" class="st5" width="3.36" height="1.22"/>
							<rect x="192.62" y="230.77" class="st5" width="4.3" height="1.22"/>
							<rect x="206.82" y="233.45" class="st5" width="4.3" height="1.22"/>
							<rect x="197.68" y="236.14" class="st5" width="5.28" height="1.22"/>
							<rect x="198.65" y="238.82" class="st5" width="3.32" height="1.22"/>
							<rect x="203.71" y="241.51" class="st5" width="4.3" height="1.22"/>
						</g>
						<g class="st21">
							<rect x="201.81" y="220.03" width="3.9" height="1.22"/>
							<rect x="204.14" y="222.72" width="2.9" height="1.22"/>
							<rect x="192.62" y="225.4" width="5.79" height="1.22"/>
							<rect x="202.74" y="228.08" width="5.24" height="1.22"/>
							<rect x="208.74" y="228.08" width="3.36" height="1.22"/>
							<rect x="192.62" y="230.77" width="4.3" height="1.22"/>
							<rect x="206.82" y="233.45" width="4.3" height="1.22"/>
							<rect x="197.68" y="236.14" width="5.28" height="1.22"/>
							<rect x="198.65" y="238.82" width="3.32" height="1.22"/>
							<rect x="203.71" y="241.51" width="4.3" height="1.22"/>
						</g>
					</g>
					<rect x="208.77" y="241.51" class="st5" width="2.35" height="1.22"/>
				</g>
			</g>
		</g>
		<g>
			<g>
				<g>
					<rect x="351.24" y="253.33" class="st10" width="4.56" height="17.53"/>
					<rect x="351.24" y="253.33" class="st7" width="4.56" height="17.53"/>
					<path class="st10" d="M358.88,267.33h-10.72c-0.46,0-0.92,0.09-1.35,0.26l-8.53,3.48c-1.35,0.55-2.23,1.86-2.23,3.32l0,0h34.94
						l0,0c0-1.46-0.88-2.77-2.23-3.32l-8.53-3.48C359.8,267.42,359.34,267.33,358.88,267.33z"/>
					<path class="st9" d="M358.88,267.33h-10.72c-0.46,0-0.92,0.09-1.35,0.26l-8.53,3.48c-1.35,0.55-2.23,1.86-2.23,3.32l0,0h34.94
						l0,0c0-1.46-0.88-2.77-2.23-3.32l-8.53-3.48C359.8,267.42,359.34,267.33,358.88,267.33z"/>
					<rect x="351.24" y="253.33" class="st18" width="4.56" height="6.43"/>
					<rect x="320.18" y="206.43" class="st10" width="66.68" height="49.24"/>
					<rect x="320.18" y="206.43" class="st9" width="66.68" height="49.24"/>
					<g>
						<polygon class="st10" points="386.86,255.66 389.28,253.49 389.28,208.6 386.86,206.43 						"/>
						<polygon class="st7" points="386.86,255.66 389.28,253.49 389.28,208.6 386.86,206.43 						"/>
					</g>
					<rect x="322.89" y="209.14" class="st5" width="61.26" height="42.73"/>
					<rect x="322.89" y="209.14" class="st11" width="61.26" height="42.73"/>
				</g>
				<g>
					<path class="st5" d="M377.48,209h-0.27h-6.54h-0.27h-6.54h-0.27h-6.54h-0.27h-6.54h-0.27h-6.54h-0.27h-6.54h-0.27h-6.53h-0.27
						h-6.81v7.12v0.27v6.85v0.27v6.85v0.27v6.85v0.27v6.85v0.27V252h6.81h0.27h6.53h0.27h6.54h0.27h6.54h0.27h6.54h0.27h6.54h0.27
						h6.54h0.27h6.54h0.27h6.81v-7.12v-0.27v-6.85v-0.27v-6.85v-0.27v-6.85v-0.27v-6.85v-0.27V209H377.48z M370.67,209.27h6.54v6.85
						h-6.54V209.27z M377.21,223.25h-6.54v-6.85h6.54V223.25z M377.21,230.37h-6.54v-6.85h6.54V230.37z M377.21,237.49h-6.54v-6.85
						h6.54V237.49z M377.21,244.61h-6.54v-6.85h6.54V244.61z M329.84,237.76h6.53v6.85h-6.53V237.76z M329.84,230.64h6.53v6.85
						h-6.53V230.64z M329.84,223.52h6.53v6.85h-6.53V223.52z M329.84,216.4h6.53v6.85h-6.53V216.4z M370.4,223.25h-6.54v-6.85h6.54
						V223.25z M370.4,230.37h-6.54v-6.85h6.54V230.37z M370.4,237.49h-6.54v-6.85h6.54V237.49z M336.64,230.64h6.54v6.85h-6.54
						V230.64z M336.64,223.52h6.54v6.85h-6.54V223.52z M363.6,230.37h-6.54v-6.85h6.54V230.37z M356.79,230.37h-6.54v-6.85h6.54
						V230.37z M349.98,230.37h-6.54v-6.85h6.54V230.37z M343.45,230.64h6.54v6.85h-6.54V230.64z M350.25,230.64h6.54v6.85h-6.54
						V230.64z M357.06,230.64h6.54v6.85h-6.54V230.64z M363.6,223.25h-6.54v-6.85h6.54V223.25z M356.79,223.25h-6.54v-6.85h6.54
						V223.25z M349.98,223.25h-6.54v-6.85h6.54V223.25z M343.18,223.25h-6.54v-6.85h6.54V223.25z M336.64,237.76h6.54v6.85h-6.54
						V237.76z M343.45,237.76h6.54v6.85h-6.54V237.76z M350.25,237.76h6.54v6.85h-6.54V237.76z M357.06,237.76h6.54v6.85h-6.54
						V237.76z M363.87,237.76h6.54v6.85h-6.54V237.76z M363.87,209.27h6.54v6.85h-6.54V209.27z M357.06,209.27h6.54v6.85h-6.54
						V209.27z M350.25,209.27h6.54v6.85h-6.54V209.27z M343.45,209.27h6.54v6.85h-6.54V209.27z M336.64,209.27h6.54v6.85h-6.54
						V209.27z M329.84,209.27h6.53v6.85h-6.53V209.27z M323.03,209.27h6.54v6.85h-6.54V209.27z M323.03,216.4h6.54v6.85h-6.54V216.4
						z M323.03,223.52h6.54v6.85h-6.54V223.52z M323.03,230.64h6.54v6.85h-6.54V230.64z M323.03,237.76h6.54v6.85h-6.54V237.76z
						 M329.56,251.73h-6.54v-6.85h6.54V251.73z M336.37,251.73h-6.53v-6.85h6.53V251.73z M343.18,251.73h-6.54v-6.85h6.54V251.73z
						 M349.98,251.73h-6.54v-6.85h6.54V251.73z M356.79,251.73h-6.54v-6.85h6.54V251.73z M363.6,251.73h-6.54v-6.85h6.54V251.73z
						 M370.4,251.73h-6.54v-6.85h6.54V251.73z M377.21,251.73h-6.54v-6.85h6.54V251.73z M384.02,251.73h-6.54v-6.85h6.54V251.73z
						 M384.02,244.61h-6.54v-6.85h6.54V244.61z M384.02,237.49h-6.54v-6.85h6.54V237.49z M384.02,230.37h-6.54v-6.85h6.54V230.37z
						 M384.02,223.25h-6.54v-6.85h6.54V223.25z M377.48,216.12v-6.85h6.54v6.85H377.48z"/>
				</g>
				<path class="st14" d="M374.64,214.15h-8.54l-1.98,3.44h-4.18v-1.87H344.2v9.33h-5.13c-2.19,0-3.96,1.77-3.96,3.96
					s1.77,3.96,3.96,3.96h5.13v10.31h8.54v6.25h4.61v0.07h7.1v-4.61h-7.1v-1.71h2.58v-17.77h4.18l1.98,3.44h8.54l4.27-7.4
					L374.64,214.15z"/>
				<path class="st10" d="M364.86,250.01h-7.91v-0.07h-4.61v-6.25h-8.54v-10.31h-4.72c-2.41,0-4.36-1.96-4.36-4.36
					c0-2.41,1.96-4.36,4.36-4.36h4.72v-9.33h16.54v1.87h3.54l1.98-3.44h9.01l4.51,7.8l-4.51,7.8h-9.01l-1.98-3.44h-3.54v17.77h-2.58
					v0.9h7.1V250.01z M357.76,249.19h6.29v-3.8h-7.1v-2.52h2.58V225.1h4.82l1.98,3.44h8.07l4.03-6.99l-4.03-6.99h-8.07l-1.98,3.44
					h-4.82v-1.87h-14.91v9.33h-5.53c-1.96,0-3.55,1.59-3.55,3.55c0,1.96,1.59,3.55,3.55,3.55h5.53v10.31h8.54v6.25h4.61V249.19z"/>
				<g>
					<path class="st10" d="M357.76,237.96h-3.93v-9.8h3.93V237.96z M354.64,237.14h2.3v-8.17h-2.3V237.14z"/>
				</g>
				<g>
					<path class="st10" d="M372.64,224.04h-4.48v-4.48h4.48V224.04z M368.98,223.22h2.85v-2.85h-2.85V223.22z"/>
				</g>
			</g>
			<g>
				<polygon class="st5" points="348.47,221.8 347.66,217.78 354.12,221.8 				"/>
				<polygon class="st16" points="348.47,221.8 347.66,217.78 354.12,221.8 				"/>
				<polygon class="st5" points="348.47,221.8 347.66,225.82 354.12,221.8 				"/>
				<polygon class="st13" points="348.47,221.8 347.66,225.82 354.12,221.8 				"/>
			</g>
			<g>
				<g>
					<rect x="326.19" y="239.26" class="st10" width="23.31" height="10.02"/>
					<rect x="326.19" y="239.26" class="st9" width="23.31" height="10.02"/>
					<rect x="326.87" y="241.23" width="21.96" height="7.1"/>
				</g>
				<g>
					<rect x="329.77" y="242.88" class="st5" width="3.26" height="1.02"/>
					<rect x="334.97" y="242.88" class="st5" width="1.89" height="1.02"/>
					<rect x="341.28" y="242.88" class="st5" width="3.26" height="1.02"/>
					<rect x="342.44" y="245.12" class="st5" width="3.59" height="1.02"/>
					<rect x="329.77" y="245.12" class="st5" width="3.26" height="1.02"/>
					<rect x="334.97" y="245.12" class="st5" width="3.83" height="1.02"/>
					<rect x="337.44" y="242.88" class="st5" width="3.26" height="1.02"/>
					<rect x="339.39" y="245.12" class="st5" width="2.42" height="1.02"/>
				</g>
			</g>
		</g>
		<g>
			<g>
				<rect x="279.15" y="249.65" class="st10" width="5.43" height="20.86"/>
				<rect x="279.15" y="249.65" class="st10" width="5.43" height="20.86"/>
				<path class="st10" d="M288.24,266.31h-12.76c-0.55,0-1.1,0.11-1.61,0.32l-10.15,4.14c-1.6,0.65-2.65,2.21-2.65,3.95l0,0h41.58
					l0,0c0-1.73-1.05-3.29-2.65-3.95l-10.15-4.14C289.34,266.42,288.79,266.31,288.24,266.31z"/>
				<rect x="279.15" y="249.65" class="st18" width="5.43" height="5.91"/>
				<rect x="242.18" y="193.83" class="st10" width="79.36" height="58.59"/>
				<rect x="242.18" y="193.83" class="st17" width="79.36" height="58.59"/>
				<polygon class="st10" points="321.54,252.42 324.62,249.84 324.62,196.41 321.54,193.83 				"/>
				<g>
					<g>
						<g>
							<polygon class="st5" points="295.23,213.78 268.49,213.78 245.62,197.8 318.1,197.8 							"/>
							<polygon class="st7" points="295.23,213.78 268.49,213.78 245.62,197.8 318.1,197.8 							"/>
						</g>
						<g>
							<polygon class="st5" points="295.23,232.47 268.49,232.47 245.62,248.44 318.1,248.44 							"/>
							<polygon class="st9" points="295.23,232.47 268.49,232.47 245.62,248.44 318.1,248.44 							"/>
						</g>
						<g>
							<polygon class="st5" points="295.23,232.47 295.23,213.78 318.1,197.8 318.1,248.44 							"/>
							<polygon class="st17" points="295.23,232.47 295.23,213.78 318.1,197.8 318.1,248.44 							"/>
						</g>
						<g>
							<polygon class="st5" points="268.49,232.47 268.49,213.78 245.62,197.8 245.62,248.44 							"/>
							<polygon class="st17" points="268.49,232.47 268.49,213.78 245.62,197.8 245.62,248.44 							"/>
						</g>
						<g>
							<rect x="268.49" y="213.78" class="st5" width="26.75" height="18.69"/>
							<rect x="268.49" y="213.78" class="st16" width="26.75" height="18.69"/>
						</g>
					</g>
					<path class="st5" d="M318.1,248.44v-4.59c-2.18-1.75-5.23-3.47-7.01-1.31c-1.68,2.03-2.23,4.07-1.97,5.9H318.1z"/>
					<path class="st22" d="M306.63,248.44h4.38l1.88-6.67c0,0-3.64-5.11-10.17-7.59c-6.53-2.48-5.12,8.47-3.07,10.37
						C300.8,245.61,304,247.22,306.63,248.44z"/>
					<g>
						<polygon class="st10" points="308.48,248.44 307.07,235.61 304.09,235.61 302.67,248.44 						"/>
						<polygon class="st17" points="308.48,248.44 307.07,235.61 304.09,235.61 302.67,248.44 						"/>
						<polygon class="st10" points="305.76,248.44 304.34,235.61 301.36,235.61 299.95,248.44 						"/>
						<polygon class="st15" points="305.76,248.44 304.34,235.61 301.36,235.61 299.95,248.44 						"/>
					</g>
					<path class="st22" d="M302.6,234.93c0,0,1.42,0.94,2.03,5.93c0.61,4.99-1.36,5.12-2.71,4.51c-1.36-0.61-2.25-0.98-2.25-0.98
						S297.38,233.78,302.6,234.93z"/>
					<path class="st22" d="M307.21,248.18l0.54,0.26h1.5l-0.75-9.24c0,0-3.52-3.33-3.86,1.66
						C304.29,245.85,307.21,248.18,307.21,248.18z"/>
					<g>
						<polygon class="st10" points="311.34,228.56 297.48,221.55 293.86,221.55 292.67,225.44 292.67,228.56 304.49,238.53 
							313.03,238.53 313.03,234.09 						"/>
						<polygon class="st9" points="311.34,228.56 297.48,221.55 293.86,221.55 292.67,225.44 292.67,228.56 304.49,238.53 
							313.03,238.53 313.03,234.09 						"/>
						<polygon class="st13" points="311.34,228.56 306.19,228.56 304.49,234.09 304.49,238.53 313.03,238.53 313.03,234.09 						
							"/>
						<polygon class="st18" points="310.6,229.98 306.92,229.98 305.71,233.93 305.71,234.93 311.81,234.93 311.81,233.93 						"/>
						<polygon class="st5" points="306.92,229.98 305.71,233.93 305.71,234.24 311.12,234.24 311.12,233.23 310.12,229.98 						"/>
						<polygon class="st8" points="306.92,229.98 305.71,233.93 305.71,234.24 311.12,234.24 311.12,233.23 310.12,229.98 						"/>
						<polygon class="st9" points="306.19,228.56 311.34,228.56 297.48,221.55 293.86,221.55 						"/>
						<polygon class="st8" points="292.67,225.44 292.67,228.56 304.49,238.53 304.49,234.09 						"/>
						<g>
							<polygon class="st5" points="296.41,227.48 297.4,224.24 297.94,224.55 296.93,227.86 							"/>
							<polygon class="st5" points="295.38,226.72 296.33,223.63 296.87,223.94 295.9,227.1 							"/>
							<polygon class="st5" points="294.35,225.97 295.25,223.02 295.79,223.32 294.86,226.35 							"/>
						</g>
						<g>
							<polygon class="st10" points="297.45,221.06 296.35,218.84 295.79,218.84 295.29,220.47 295.29,221.78 296.92,222.53 
								297.7,222.53 297.7,221.88 							"/>
							<polygon class="st9" points="297.45,221.06 296.35,218.84 295.79,218.84 295.29,220.47 295.29,221.78 296.92,222.53 
								297.7,222.53 297.7,221.88 							"/>
							<polygon class="st8" points="297.45,221.06 297.17,221.06 296.92,221.88 296.92,222.53 297.7,222.53 297.7,221.88 							"/>
							<polygon class="st9" points="297.17,221.06 297.45,221.06 297.45,221.06 296.35,218.84 295.79,218.84 							"/>
						</g>
					</g>
					<g>
						<path class="st5" d="M287.72,222.72h-2.04c-0.19-1.8-1.61-3.22-3.41-3.41v-2.04h-0.81v2.04c-1.8,0.19-3.22,1.61-3.41,3.41H276
							v0.81h2.04c0.19,1.8,1.61,3.22,3.41,3.41v2.04h0.81v-2.04c1.8-0.19,3.22-1.61,3.41-3.41h2.04V222.72z M282.27,226.4v-1.92
							h-0.81v1.92c-1.5-0.19-2.68-1.37-2.87-2.87h1.92v-0.81h-1.92c0.19-1.5,1.37-2.68,2.87-2.87v1.92h0.81v-1.92
							c1.5,0.19,2.68,1.37,2.87,2.87h-1.92v0.81h1.92C284.95,225.03,283.77,226.21,282.27,226.4z"/>
						<path class="st8" d="M287.72,222.72h-2.04c-0.19-1.8-1.61-3.22-3.41-3.41v-2.04h-0.81v2.04c-1.8,0.19-3.22,1.61-3.41,3.41H276
							v0.81h2.04c0.19,1.8,1.61,3.22,3.41,3.41v2.04h0.81v-2.04c1.8-0.19,3.22-1.61,3.41-3.41h2.04V222.72z M282.27,226.4v-1.92
							h-0.81v1.92c-1.5-0.19-2.68-1.37-2.87-2.87h1.92v-0.81h-1.92c0.19-1.5,1.37-2.68,2.87-2.87v1.92h0.81v-1.92
							c1.5,0.19,2.68,1.37,2.87,2.87h-1.92v0.81h1.92C284.95,225.03,283.77,226.21,282.27,226.4z"/>
					</g>
				</g>
			</g>
			<g>
				<g class="st12">
					<rect x="262.6" y="204.3" class="st14" width="2.89" height="0.82"/>
					<rect x="252.4" y="204.3" class="st14" width="2.62" height="0.82"/>
					<rect x="256.59" y="204.3" class="st14" width="3.09" height="0.82"/>
					<rect x="260.14" y="204.3" class="st14" width="1.95" height="0.82"/>
				</g>
				<g class="st12">
					<g>
						<rect x="252.4" y="202.5" class="st14" width="2.62" height="0.82"/>
						<rect x="256.59" y="202.5" class="st14" width="1.52" height="0.82"/>
						<rect x="261.67" y="202.5" class="st14" width="2.62" height="0.82"/>
						<rect x="258.58" y="202.5" class="st14" width="2.62" height="0.82"/>
					</g>
					<g>
						<rect x="256.59" y="206.11" class="st14" width="2.1" height="0.82"/>
						<rect x="259.2" y="206.11" class="st14" width="2.89" height="0.82"/>
						<rect x="262.6" y="206.11" class="st14" width="2.07" height="0.82"/>
						<rect x="252.4" y="206.11" class="st14" width="2.62" height="0.82"/>
					</g>
				</g>
			</g>
		</g>
	</g>
	<g id="Keyboard" class="st23">
	</g>
	<g id="Computer" class="st23">
	</g>
</g>
<g id="Character">
	<g>
		<g>
			<g>
				<path class="st10" d="M179.08,193.38c0,0,8.84,2.54,8.64-2.65c-0.2-5.19-7.66,0.22-9.64-1.15
					C176.1,188.22,179.08,193.38,179.08,193.38z"/>
				<path class="st24" d="M179.08,193.38c0,0,8.84,2.54,8.64-2.65c-0.2-5.19-7.66,0.22-9.64-1.15
					C176.1,188.22,179.08,193.38,179.08,193.38z"/>
			</g>
			<g>
				<polygon class="st22" points="214.82,386.69 213.76,406.13 206.71,406.67 204.85,386.82 				"/>
				<g>
					<path class="st5" d="M215.03,406.05c-0.08-0.01-0.14-0.07-0.16-0.14c-0.02-0.07,0.01-0.15,0.07-0.2
						c0.11-0.08,2.68-1.79,3.99-1.53c0.24,0.05,0.46,0.18,0.6,0.39c0.19,0.22,0.22,0.54,0.07,0.79c-0.29,0.43-1.26,0.68-2.21,0.74
						C216.6,406.16,215.81,406.14,215.03,406.05z M215.6,405.77c1.44,0.08,3.37-0.07,3.7-0.6c0.05-0.07,0.09-0.18-0.06-0.39
						c-0.08-0.13-0.22-0.21-0.37-0.23c-0.12-0.02-0.23-0.03-0.35-0.02C217.46,404.75,216.48,405.17,215.6,405.77z"/>
					<path class="st5" d="M214.93,406.05c-0.06-0.03-0.09-0.09-0.09-0.16c0-0.1,0.06-2.18,0.98-3.05c0.26-0.26,0.62-0.39,0.99-0.38
						c0.5,0.01,0.68,0.26,0.71,0.46c0.22,0.85-1.5,2.64-2.39,3.12c-0.02,0.01-0.05,0.02-0.08,0.01
						C215.01,406.06,214.97,406.06,214.93,406.05z M216.71,402.81c-0.23,0.01-0.45,0.11-0.61,0.27c-0.53,0.7-0.82,1.55-0.85,2.42
						c0.91-0.63,2.03-2.02,1.95-2.53c-0.02-0.05-0.05-0.18-0.38-0.18L216.71,402.81L216.71,402.81z"/>
					<path class="st10" d="M214.17,405.03l-8.37,0.59c-0.32,0.02-0.57,0.26-0.62,0.57l-1.04,6.92c-0.1,0.61,0.32,1.19,0.94,1.28
						c0.08,0.01,0.16,0.02,0.24,0.01c3.02-0.26,5.69-0.62,9.45-0.88c4.44-0.31,3.35,0.3,8.57,0.01c3.14-0.18,3.47-3.79,2.13-3.87
						c-6.15-0.34-6.91-2.14-9.42-4.15C215.49,405.13,214.83,404.96,214.17,405.03z"/>
				</g>
				<polygon class="st18" points="214.11,399.67 206.06,399.7 205.33,391.86 214.54,391.74 				"/>
				<path class="st25" d="M139.06,301.05c0,0-4.11,20.41,13.04,24.21c17.16,3.8,48.95-0.32,48.95-0.32s-3.64,11.09,4.3,70.92
					l9.49,0.01c0,0,8.83-67.26,3.09-77.74C212.2,307.65,177.67,302.64,139.06,301.05z"/>
				<path class="st25" d="M139.06,301.05c0,0-4.11,20.41,13.04,24.21c17.16,3.8,48.95-0.32,48.95-0.32s-3.64,11.09,4.3,70.92
					l9.49,0.01c0,0,8.83-67.26,3.09-77.74C212.2,307.65,177.67,302.64,139.06,301.05z"/>
				<path class="st8" d="M217.21,317.04c0.27,0.36,0.52,0.72,0.72,1.09c2.91,5.31,2.07,25.25,0.54,43.6
					c-7.11-22.32-6.69-27.96-6.69-27.96s-4.69-0.3-11.51-0.67c0.18-6.29,0.78-8.15,0.78-8.15S211.9,314.54,217.21,317.04z"/>
				<g>
					<polygon class="st25" points="215.81,393.24 215.28,397.01 204.86,397.02 204.34,393.41 					"/>
					<polygon class="st7" points="215.81,393.24 215.28,397.01 204.86,397.02 204.34,393.41 					"/>
				</g>
			</g>
			<g>
				<polygon class="st22" points="245.27,405.05 238.92,406.27 236.4,397.61 234.02,389.42 232.92,385.65 242.26,383.25 
					242.66,386.18 243.97,395.68 				"/>
				<g>
					<path class="st5" d="M246.09,405.62c-0.07-0.02-0.13-0.08-0.14-0.16c-0.01-0.08,0.03-0.15,0.1-0.18
						c0.12-0.06,2.9-1.41,4.16-0.97c0.23,0.08,0.43,0.24,0.54,0.46c0.16,0.25,0.14,0.56-0.04,0.79c-0.34,0.39-1.34,0.5-2.3,0.43
						C247.64,405.94,246.86,405.82,246.09,405.62z M246.7,405.42c1.42,0.27,3.35,0.39,3.74-0.08c0.06-0.06,0.11-0.16-0.01-0.4
						c-0.07-0.14-0.19-0.24-0.34-0.28c-0.11-0.04-0.23-0.06-0.34-0.07C248.68,404.67,247.65,404.95,246.7,405.42z"/>
					<path class="st5" d="M245.99,405.61c-0.05-0.04-0.08-0.1-0.07-0.17c0.02-0.1,0.36-2.15,1.39-2.89c0.3-0.22,0.67-0.31,1.03-0.24
						c0.5,0.08,0.64,0.35,0.64,0.56c0.11,0.87-1.85,2.41-2.8,2.76c-0.02,0.01-0.05,0.01-0.08,0
						C246.08,405.63,246.03,405.63,245.99,405.61z M248.2,402.64c-0.23-0.02-0.46,0.05-0.64,0.19c-0.62,0.62-1.03,1.42-1.18,2.28
						c0.99-0.5,2.29-1.72,2.27-2.24c-0.01-0.05-0.02-0.18-0.35-0.23L248.2,402.64L248.2,402.64z"/>
					<path class="st10" d="M245.38,404.5l-8.38-0.56c-0.32-0.02-0.6,0.18-0.69,0.48l-1.97,6.71c-0.18,0.59,0.16,1.22,0.75,1.4
						c0.08,0.02,0.15,0.04,0.23,0.04c3.02,0.15,5.72,0.17,9.48,0.42c4.44,0.3,3.28,0.75,8.49,1.18c3.14,0.25,3.96-3.28,2.63-3.55
						c-6.05-1.18-6.56-3.06-8.76-5.4C246.67,404.77,246.04,404.51,245.38,404.5z"/>
				</g>
				<polygon class="st18" points="244.15,395.64 243.97,395.68 236.4,397.61 234.02,389.42 242.66,386.18 242.69,386.17 				"/>
			</g>
			<path class="st25" d="M144.31,302.3c0,0-2.2,22.82,15.37,22.43c17.57-0.39,53.93,1.95,53.93,1.95s-0.89,11.63,21.06,67.86
				l9.22-2.25c0,0-6.46-69.72-14.52-78.53C221.29,304.95,182.19,294.66,144.31,302.3z"/>
			<polygon class="st25" points="244.74,389.45 245.16,393.58 233.97,396.31 232.46,392.61 			"/>
			<polygon class="st7" points="244.74,389.45 245.16,393.58 233.97,396.31 232.46,392.61 			"/>
			<path class="st26" d="M185.45,203.44l3.33,4.68c0,0-1.54,1.27-3.83,0.58L185.45,203.44z"/>
			<path class="st27" d="M184.27,199.95c0.11,0.01,0.22-0.04,0.28-0.13c0.48-0.67,1.26-1.08,2.09-1.08c0.18,0.01,0.33-0.12,0.35-0.3
				c0.01-0.18-0.12-0.34-0.3-0.35c-1.05-0.02-2.04,0.48-2.65,1.33c-0.11,0.14-0.08,0.35,0.06,0.46l0,0
				C184.15,199.93,184.21,199.95,184.27,199.95z"/>
			<path class="st27" d="M187.27,202.67c0.04,0.62-0.25,1.15-0.66,1.18c-0.41,0.03-0.8-0.48-0.82-1.09
				c-0.02-0.61,0.25-1.15,0.66-1.17C186.85,201.56,187.22,202.04,187.27,202.67z"/>
			<path class="st22" d="M162.96,200.03c0.16,8.32,0.05,11.85,4.06,16.28c6.22,4.6,16.23,4.66,18.55-3.54
				c2.1-7.38,1.48-19.71-6.5-23.4c-5.69-2.63-12.44-0.14-15.07,5.55C163.26,196.52,162.9,198.27,162.96,200.03z"/>
			<path class="st28" d="M175.67,219.4l0.04-0.41c0.09-0.91,0.89-2.62,1.78-2.42l3.48,1.83
				C179.38,219.17,177.55,219.48,175.67,219.4z"/>
			<polygon class="st22" points="175.87,217.29 173.61,229.77 162.12,228.23 165.84,215.38 			"/>
			<g>
				<path class="st25" d="M175.6,224.46l3.89-2.24c0,0-12.44-4.06-17.79-2.51c-5.35,1.55-3.02,4.02-3.02,4.02L175.6,224.46z"/>
				<path class="st13" d="M175.6,224.46l3.89-2.24c0,0-12.44-4.06-17.79-2.51c-5.35,1.55-3.02,4.02-3.02,4.02L175.6,224.46z"/>
			</g>
			<g>
				<path class="st22" d="M161.5,241.96c0,0,5.44,20.7,7.54,22.71c1.35,1.29,24.97-1.44,24.97-1.44l6.57-2.31
					c1.11-0.39,2.34-0.15,3.23,0.61c2,1.71,5.31,4.8,5.42,6.61c0.04,0.71-0.92,2.15-1.61,2.34c-1.35,0.38-5.12-2.31-5.12-2.31
					l-8.57,0.75c0,0-21.29,6.4-27.53,5.79c-7.24-0.71-13.91-26.81-13.91-26.81L161.5,241.96z"/>
				<path class="st18" d="M161.5,241.96c0,0,5.44,20.7,7.54,22.71c1.35,1.29,24.97-1.44,24.97-1.44l6.57-2.31
					c1.11-0.39,2.34-0.15,3.23,0.61c2,1.71,5.31,4.8,5.42,6.61c0.04,0.71-0.92,2.15-1.61,2.34c-1.35,0.38-5.12-2.31-5.12-2.31
					l-8.57,0.75c0,0-21.29,6.4-27.53,5.79c-7.24-0.71-13.91-26.81-13.91-26.81L161.5,241.96z"/>
				<path class="st29" d="M153.16,226.73c0,0,6.15,0.72,10.72,21.18c0,0-5.67,1.52-10.23,5.73c0,0-3.65-9.34-4.01-14.43
					C149.17,232.41,153.16,226.73,153.16,226.73z"/>
				<path class="st13" d="M153.16,226.73c0,0,6.15,0.72,10.72,21.18c0,0-5.67,1.52-10.23,5.73c0,0-3.65-9.34-4.01-14.43
					C149.17,232.41,153.16,226.73,153.16,226.73z"/>
			</g>
			<path class="st25" d="M186.63,230.25c0,0-6.65,46.49-7.42,70.6c0,0-15.18,1.76-40.99,2.15c0,0-3.94-75.15,20.45-79.26
				C181.42,219.9,186.63,230.25,186.63,230.25z"/>
			<path class="st13" d="M186.63,230.25c0,0-6.26,39.65-7.03,63.76c0,0-14.95-0.39-40.76,0c0,0-4.57-66.16,19.82-70.27
				C181.42,219.9,186.63,230.25,186.63,230.25z"/>
			<path class="st8" d="M180.14,234.68l4.81,7.97c-0.5,3.81-1.07,8.29-1.65,13.11c-5.3-11.31-4.43-21.02-4.43-21.02L180.14,234.68z"
				/>
			<g>
				<path class="st22" d="M187.95,231.98c0,0,9.9,21.78,12.4,23.57c1.6,1.15,20.3-0.71,20.3-0.71s5.92-4.55,8.22-4.29
					c2.73,0.31,7.82,4.44,8.38,7.13c0.15,0.73-0.64,2.38-1.33,2.68c-1.35,0.6-4.21-1.6-5.68-1.64c-2.26-0.06-6.63,1.49-8.82,2.07
					c-7.08,1.86-15.73,5.33-22.32,5.63c-7.65,0.35-19.64-26.88-19.64-26.88L187.95,231.98z"/>
				<path class="st25" d="M180.99,225.46c0,0,6.52-0.21,14.49,20.35c0,0-5.66,2.47-9.75,7.58c0,0-5.27-9.14-6.44-14.39
					C177.73,232,180.99,225.46,180.99,225.46z"/>
				<path class="st13" d="M180.99,225.46c0,0,6.52-0.21,14.49,20.35c0,0-5.66,2.47-9.75,7.58c0,0-5.27-9.14-6.44-14.39
					C177.73,232,180.99,225.46,180.99,225.46z"/>
			</g>
			<path class="st10" d="M173.52,216.84c0,0,5.37-3.86,5.97-11.05c0,0,0.95-2.57,1.37-4.94c0.42-2.38,0.1-7.8,0.1-7.8
				s2.62,0.29,2.62-2.3c0,0,0.93-4.27-1.72-7.21c-2.66-2.94-4.6,1.97-4.6,1.97s-2.25-5.59-4.74-4.73c-2.49,0.85-2.27,4.33-2.27,4.33
				s-5.99-3.18-7.31-0.57c-1.31,2.6,1.73,4.2,1.73,4.2s-6.79-0.31-6.18,2.55c0.61,2.86,2.99,2.72,2.99,2.72s-3.48,0.02-3.69,2.93
				c-0.21,2.91,2.57,1.68,2.96,5.27c0.36,3.23,1.14,8.18,3.83,12.56c0.53,0.86,1.47,1.4,2.48,1.38
				C168.36,216.12,170.52,216.22,173.52,216.84z"/>
			<path class="st22" d="M180.06,202.47c0.6,1.59,0.55,3.35-0.16,4.9c-0.95,2.05-2.06,1.57-3.24-0.21c-1.07-1.61-1.85-4.6-0.2-6.07
				C178.11,199.61,179.3,200.53,180.06,202.47z"/>
			<g>
				<g>
					<g>
						<path class="st30" d="M176.79,188.93c-1.15-2.45-2.94-5.56-5.6-7.19c0,0-3.22,2.26-3.53,2.33c-0.15-0.15,4.31,3.61,5.43,6.42
							c1.93,4.82,2.05,10.81,2.05,10.81l3.81-0.89C178.94,200.4,179.39,194.38,176.79,188.93z"/>
					</g>
					<g class="st31">
						<path d="M176.79,188.93c-1.15-2.45-2.94-5.56-5.6-7.19c0,0-3.22,2.26-3.53,2.33c-0.15-0.15,4.31,3.61,5.43,6.42
							c1.93,4.82,2.05,10.81,2.05,10.81l3.81-0.89C178.94,200.4,179.39,194.38,176.79,188.93z"/>
					</g>
				</g>
				<g>
					<path class="st32" d="M181.32,197.55L181.32,197.55c3.31,2.18,4.23,6.63,2.05,9.94c-2.18,3.31-6.63,4.23-9.94,2.05
						c-1.85-1.06-3.44-5.49-1.26-8.8C174.36,197.44,178.02,195.38,181.32,197.55z"/>
					<path class="st31" d="M182.22,200.01c1.96,1.35,2.19,4.48,0.51,7.04c-1.69,2.55-4.64,3.58-6.62,2.28
						c-1.98-1.3-1.6-4.52,0.08-7.08C177.84,199.69,180.26,198.66,182.22,200.01z"/>
					<polygon class="st10" points="175.21,204.81 183.68,203.77 183.19,204.93 175.76,205.96 					"/>
				</g>
			</g>
		</g>
		<g>
			<path class="st10" d="M128.01,394c6.63-1.09,16.46-2.63,20.84-2.95c0.96-0.07,2.17-0.12,3.49-0.16v-34h8.33v34
				c1.33,0.04,2.53,0.09,3.49,0.16c4.38,0.32,14.21,1.87,20.84,2.95c3.82,0.63,6.62,3.93,6.62,7.8v1.72h-8.08l-1.08-2.42
				c0,0-15.18-2.63-20.29-3.01c-2.82-0.21-8.5-0.21-11.32,0c-5.11,0.38-20.29,3.01-20.29,3.01l-1.08,2.42h-8.08v-1.72
				C121.39,397.93,124.19,394.63,128.01,394z"/>
			<path class="st10" d="M119.08,409.21c0,3.14,2.55,5.69,5.69,5.69s5.69-2.55,5.69-5.69c0-3.14-2.55-5.69-5.69-5.69
				S119.08,406.06,119.08,409.21z"/>
			<path class="st9" d="M121.93,409.21c0,1.57,1.27,2.85,2.85,2.85c1.57,0,2.85-1.27,2.85-2.85s-1.27-2.85-2.85-2.85
				C123.2,406.36,121.93,407.64,121.93,409.21z"/>
			<path class="st10" d="M182.54,409.21c0,3.14,2.55,5.69,5.69,5.69c3.14,0,5.69-2.55,5.69-5.69c0-3.14-2.55-5.69-5.69-5.69
				C185.09,403.52,182.54,406.06,182.54,409.21z"/>
			<path class="st9" d="M185.38,409.21c0,1.57,1.27,2.85,2.85,2.85c1.57,0,2.85-1.27,2.85-2.85s-1.27-2.85-2.85-2.85
				C186.66,406.36,185.38,407.64,185.38,409.21z"/>
			<rect x="152.34" y="356.88" class="st18" width="8.33" height="10.24"/>
			<path class="st10" d="M153.38,361.76h6.24c1.97,0,3.57-1.6,3.57-3.57v-29.04h-13.37v29.04
				C149.82,360.16,151.41,361.76,153.38,361.76z"/>
			<path class="st7" d="M153.38,361.76h6.24c1.97,0,3.57-1.6,3.57-3.57v-29.04h-13.37v29.04
				C149.82,360.16,151.41,361.76,153.38,361.76z"/>
			<rect x="149.82" y="329.15" class="st8" width="13.37" height="7.94"/>
			<path class="st10" d="M111.31,322.38c7.98-2.03,16.17-3.15,24.39-3.36c8.47-0.21,40.17-0.03,47.7-0.03
				c9.16,0,18.33,1.13,27.22,3.39c5.59,1.43,3.87,9.49-1.18,9.58c-0.45,0.01-96.28-0.02-96.63,0
				C107.52,332.2,105.6,323.84,111.31,322.38z"/>
			<g>
				<path class="st10" d="M95.45,253.16c2.42,0,4.46-1.82,4.74-4.22l1.2-10.44c0.28-2.41,2.31-4.22,4.74-4.22h7.59h4.97h7.59
					c2.22,0,4.15,1.54,4.65,3.7l2.64,11.49c0.5,2.17,2.43,3.7,4.65,3.7h1.55c2.42,0,4.46,1.82,4.74,4.22l7.58,65.71
					c0.33,2.83-1.89,5.31-4.74,5.31h-7.59h-29.13h-7.59c-2.42,0-4.46-1.82-4.74-4.22l-7.58-65.71
					C90.38,255.64,92.6,253.16,95.45,253.16z"/>
				<path class="st7" d="M95.45,253.16c2.42,0,4.46-1.82,4.74-4.22l1.2-10.44c0.28-2.41,2.31-4.22,4.74-4.22h7.59h4.97h7.59
					c2.22,0,4.15,1.54,4.65,3.7l2.64,11.49c0.5,2.17,2.43,3.7,4.65,3.7h1.55c2.42,0,4.46,1.82,4.74,4.22l7.58,65.71
					c0.33,2.83-1.89,5.31-4.74,5.31h-7.59h-29.13h-7.59c-2.42,0-4.46-1.82-4.74-4.22l-7.58-65.71
					C90.38,255.64,92.6,253.16,95.45,253.16z"/>
				<path class="st10" d="M100.18,248.93l1.2-10.44c0.28-2.41,2.31-4.22,4.74-4.22h12.56c2.22,0,4.15,1.54,4.65,3.7l2.64,11.49
					c0.5,2.17,2.43,3.7,4.65,3.7h1.55c2.42,0,4.46,1.82,4.74,4.22l7.58,65.71c0.33,2.83-1.89,5.31-4.74,5.31h-36.72
					c-2.42,0-4.46-1.82-4.74-4.22l-7.58-65.71c-0.33-2.83,1.89-5.31,4.74-5.31l0,0C97.87,253.16,99.91,251.34,100.18,248.93z"/>
				<path class="st33" d="M100.18,248.93l1.2-10.44c0.28-2.41,2.31-4.22,4.74-4.22h12.56c2.22,0,4.15,1.54,4.65,3.7l2.64,11.49
					c0.5,2.17,2.43,3.7,4.65,3.7h1.55c2.42,0,4.46,1.82,4.74,4.22l7.58,65.71c0.33,2.83-1.89,5.31-4.74,5.31h-36.72
					c-2.42,0-4.46-1.82-4.74-4.22l-7.58-65.71c-0.33-2.83,1.89-5.31,4.74-5.31l0,0C97.87,253.16,99.91,251.34,100.18,248.93z"/>
			</g>
			<path class="st7" d="M208.02,331.79c-16.1-4.11-33.15-4.11-49.25,0c-6.09,1.55-8.69-7.86-2.59-9.41
				c17.78-4.53,36.66-4.53,54.44,0C216.7,323.93,214.12,333.35,208.02,331.79L208.02,331.79z"/>
			<g>
				<path class="st10" d="M182.54,328.4L182.54,328.4c1.2,0,2.17-0.97,2.17-2.17v-24.94c0-1.2-0.97-2.17-2.17-2.17l0,0
					c-1.2,0-2.17,0.97-2.17,2.17v24.94C180.37,327.43,181.34,328.4,182.54,328.4z"/>
				<path class="st9" d="M182.54,328.4L182.54,328.4c1.2,0,2.17-0.97,2.17-2.17v-24.94c0-1.2-0.97-2.17-2.17-2.17l0,0
					c-1.2,0-2.17,0.97-2.17,2.17v24.94C180.37,327.43,181.34,328.4,182.54,328.4z"/>
				<path class="st8" d="M182.54,299.12c1.2,0,2.17,0.97,2.17,2.17v6.46h-4.34v-6.46C180.37,300.09,181.34,299.12,182.54,299.12z"/>
				<g>
					<path class="st10" d="M205.54,304.01c-17.14,0-28.86,0-46,0c-4.19,0-4.19-6.51,0-6.51c17.14,0,28.86,0,46,0
						C209.72,297.5,209.73,304.01,205.54,304.01L205.54,304.01z"/>
				</g>
				<g class="st18">
					<path class="st14" d="M205.54,304.01c-17.14,0-28.86,0-46,0c-4.19,0-4.19-6.51,0-6.51c17.14,0,28.86,0,46,0
						C209.72,297.5,209.73,304.01,205.54,304.01L205.54,304.01z"/>
				</g>
				<g>
					<path class="st10" d="M205.54,304.01c-17.14,0-21.27,0-38.41,0c-4.19,0-4.19-6.51,0-6.51c17.14,0,21.27,0,38.41,0
						C209.72,297.5,209.73,304.01,205.54,304.01L205.54,304.01z"/>
				</g>
				<g class="st13">
					<path class="st14" d="M205.54,304.01c-17.14,0-21.27,0-38.41,0c-4.19,0-4.19-6.51,0-6.51c17.14,0,21.27,0,38.41,0
						C209.72,297.5,209.73,304.01,205.54,304.01L205.54,304.01z"/>
				</g>
			</g>
			<path class="st18" d="M153.94,392.49h5.13l3.9,5.68c-0.29-0.03-0.56-0.05-0.81-0.07c-2.82-0.21-8.5-0.21-11.32,0
				c-0.24,0.02-0.52,0.04-0.81,0.07L153.94,392.49z"/>
			<path class="st10" d="M150.7,409.21c0,3.14,2.55,5.69,5.69,5.69c3.14,0,5.69-2.55,5.69-5.69c0-3.14-2.55-5.69-5.69-5.69
				C153.25,403.52,150.7,406.06,150.7,409.21z"/>
			<path class="st9" d="M153.55,409.21c0,1.57,1.27,2.85,2.85,2.85c1.57,0,2.85-1.27,2.85-2.85s-1.27-2.85-2.85-2.85
				C154.82,406.36,153.55,407.64,153.55,409.21z"/>
			<polygon class="st10" points="153.94,403.04 159.07,403.04 160.15,391.4 152.85,391.4 			"/>
			<polygon class="st17" points="153.94,403.04 159.07,403.04 160.15,391.4 152.85,391.4 			"/>
		</g>
	</g>
</g>
</svg>
