<svg id="visual" viewBox="0 0 900 600" width="900" height="600" xmlns="http://www.w3.org/2000/svg" xmlns:xlink="http://www.w3.org/1999/xlink" version="1.1"><rect x="0" y="0" width="900" height="600" fill="#001220"></rect><path d="M0 408L21.5 414.5C43 421 86 434 128.8 427.5C171.7 421 214.3 395 257.2 390C300 385 343 401 385.8 410.2C428.7 419.3 471.3 421.7 514.2 424.3C557 427 600 430 642.8 426.8C685.7 423.7 728.3 414.3 771.2 413.2C814 412 857 419 878.5 422.5L900 426L900 601L878.5 601C857 601 814 601 771.2 601C728.3 601 685.7 601 642.8 601C600 601 557 601 514.2 601C471.3 601 428.7 601 385.8 601C343 601 300 601 257.2 601C214.3 601 171.7 601 128.8 601C86 601 43 601 21.5 601L0 601Z" fill="#fa7268"></path><path d="M0 471L21.5 471C43 471 86 471 128.8 469.3C171.7 467.7 214.3 464.3 257.2 458.8C300 453.3 343 445.7 385.8 441.7C428.7 437.7 471.3 437.3 514.2 430.5C557 423.7 600 410.3 642.8 408C685.7 405.7 728.3 414.3 771.2 414.5C814 414.7 857 406.3 878.5 402.2L900 398L900 601L878.5 601C857 601 814 601 771.2 601C728.3 601 685.7 601 642.8 601C600 601 557 601 514.2 601C471.3 601 428.7 601 385.8 601C343 601 300 601 257.2 601C214.3 601 171.7 601 128.8 601C86 601 43 601 21.5 601L0 601Z" fill="#ef5f67"></path><path d="M0 444L21.5 447.8C43 451.7 86 459.3 128.8 463.2C171.7 467 214.3 467 257.2 472.5C300 478 343 489 385.8 487.5C428.7 486 471.3 472 514.2 470.2C557 468.3 600 478.7 642.8 485C685.7 491.3 728.3 493.7 771.2 497.3C814 501 857 506 878.5 508.5L900 511L900 601L878.5 601C857 601 814 601 771.2 601C728.3 601 685.7 601 642.8 601C600 601 557 601 514.2 601C471.3 601 428.7 601 385.8 601C343 601 300 601 257.2 601C214.3 601 171.7 601 128.8 601C86 601 43 601 21.5 601L0 601Z" fill="#e34c67"></path><path d="M0 521L21.5 515.5C43 510 86 499 128.8 495.5C171.7 492 214.3 496 257.2 505C300 514 343 528 385.8 528C428.7 528 471.3 514 514.2 508.2C557 502.3 600 504.7 642.8 503.3C685.7 502 728.3 497 771.2 496.8C814 496.7 857 501.3 878.5 503.7L900 506L900 601L878.5 601C857 601 814 601 771.2 601C728.3 601 685.7 601 642.8 601C600 601 557 601 514.2 601C471.3 601 428.7 601 385.8 601C343 601 300 601 257.2 601C214.3 601 171.7 601 128.8 601C86 601 43 601 21.5 601L0 601Z" fill="#d53867"></path><path d="M0 560L21.5 554.5C43 549 86 538 128.8 533.2C171.7 528.3 214.3 529.7 257.2 529.2C300 528.7 343 526.3 385.8 531.5C428.7 536.7 471.3 549.3 514.2 549.5C557 549.7 600 537.3 642.8 535.3C685.7 533.3 728.3 541.7 771.2 548.2C814 554.7 857 559.3 878.5 561.7L900 564L900 601L878.5 601C857 601 814 601 771.2 601C728.3 601 685.7 601 642.8 601C600 601 557 601 514.2 601C471.3 601 428.7 601 385.8 601C343 601 300 601 257.2 601C214.3 601 171.7 601 128.8 601C86 601 43 601 21.5 601L0 601Z" fill="#c62368"></path></svg>