<svg id="visual" viewBox="0 0 900 600" width="900" height="600" xmlns="http://www.w3.org/2000/svg" xmlns:xlink="http://www.w3.org/1999/xlink" version="1.1"><rect x="0" y="0" width="900" height="600" fill="#1f3444"></rect><path d="M0 340L21.5 354.7C43 369.3 86 398.7 128.8 402.3C171.7 406 214.3 384 257.2 376.7C300 369.3 343 376.7 385.8 380.2C428.7 383.7 471.3 383.3 514.2 393.3C557 403.3 600 423.7 642.8 429.5C685.7 435.3 728.3 426.7 771.2 428.3C814 430 857 442 878.5 448L900 454L900 601L878.5 601C857 601 814 601 771.2 601C728.3 601 685.7 601 642.8 601C600 601 557 601 514.2 601C471.3 601 428.7 601 385.8 601C343 601 300 601 257.2 601C214.3 601 171.7 601 128.8 601C86 601 43 601 21.5 601L0 601Z" fill="#fa7268"></path><path d="M0 494L21.5 490.7C43 487.3 86 480.7 128.8 476.5C171.7 472.3 214.3 470.7 257.2 463.3C300 456 343 443 385.8 440.2C428.7 437.3 471.3 444.7 514.2 444.8C557 445 600 438 642.8 444.3C685.7 450.7 728.3 470.3 771.2 478C814 485.7 857 481.3 878.5 479.2L900 477L900 601L878.5 601C857 601 814 601 771.2 601C728.3 601 685.7 601 642.8 601C600 601 557 601 514.2 601C471.3 601 428.7 601 385.8 601C343 601 300 601 257.2 601C214.3 601 171.7 601 128.8 601C86 601 43 601 21.5 601L0 601Z" fill="#eb5967"></path><path d="M0 448L21.5 462.5C43 477 86 506 128.8 508C171.7 510 214.3 485 257.2 482.7C300 480.3 343 500.7 385.8 512C428.7 523.3 471.3 525.7 514.2 517.5C557 509.3 600 490.7 642.8 480.5C685.7 470.3 728.3 468.7 771.2 477.2C814 485.7 857 504.3 878.5 513.7L900 523L900 601L878.5 601C857 601 814 601 771.2 601C728.3 601 685.7 601 642.8 601C600 601 557 601 514.2 601C471.3 601 428.7 601 385.8 601C343 601 300 601 257.2 601C214.3 601 171.7 601 128.8 601C86 601 43 601 21.5 601L0 601Z" fill="#da3f67"></path><path d="M0 501L21.5 513C43 525 86 549 128.8 560.7C171.7 572.3 214.3 571.7 257.2 570.7C300 569.7 343 568.3 385.8 567.8C428.7 567.3 471.3 567.7 514.2 563.2C557 558.7 600 549.3 642.8 545.8C685.7 542.3 728.3 544.7 771.2 542.2C814 539.7 857 532.3 878.5 528.7L900 525L900 601L878.5 601C857 601 814 601 771.2 601C728.3 601 685.7 601 642.8 601C600 601 557 601 514.2 601C471.3 601 428.7 601 385.8 601C343 601 300 601 257.2 601C214.3 601 171.7 601 128.8 601C86 601 43 601 21.5 601L0 601Z" fill="#c62368"></path></svg>