<svg id="visual" viewBox="0 0 900 600" width="900" height="600" xmlns="http://www.w3.org/2000/svg" xmlns:xlink="http://www.w3.org/1999/xlink" version="1.1"><rect x="0" y="0" width="900" height="600" fill="#ffffff"></rect><g fill="none" stroke="#e32626" stroke-width="1"><path d="M8.6 5L8.6 22.3L-8.6 22.3L-8.6 5L-23.6 -3.6L-15 -18.6L0 -10L15 -18.6L23.6 -3.6Z" transform="translate(676 574)"></path><path d="M3.2 1.9L3.2 8.3L-3.2 8.3L-3.2 1.9L-8.8 -1.4L-5.6 -7L0 -3.7L5.6 -7L8.8 -1.4Z" transform="translate(793 364)"></path><path d="M8.1 4.7L8.1 20.9L-8.1 20.9L-8.1 4.7L-22.1 -3.4L-14 -17.4L0 -9.3L14 -17.4L22.1 -3.4Z" transform="translate(882 231)"></path><path d="M5.4 3.1L5.4 13.9L-5.4 13.9L-5.4 3.1L-14.7 -2.3L-9.3 -11.6L0 -6.2L9.3 -11.6L14.7 -2.3Z" transform="translate(209 521)"></path><path d="M6.5 3.7L6.5 16.7L-6.5 16.7L-6.5 3.7L-17.7 -2.7L-11.2 -14L0 -7.5L11.2 -14L17.7 -2.7Z" transform="translate(544 539)"></path><path d="M7.3 4.2L7.3 18.8L-7.3 18.8L-7.3 4.2L-19.9 -3.1L-12.6 -15.7L0 -8.4L12.6 -15.7L19.9 -3.1Z" transform="translate(585 462)"></path><path d="M4 2.3L4 10.4L-4 10.4L-4 2.3L-11.1 -1.7L-7 -8.7L0 -4.7L7 -8.7L11.1 -1.7Z" transform="translate(119 477)"></path></g></svg>