<svg id="visual" viewBox="0 0 900 600" width="900" height="600" xmlns="http://www.w3.org/2000/svg" xmlns:xlink="http://www.w3.org/1999/xlink" version="1.1"><rect x="0" y="0" width="900" height="600" fill="#ffffff"></rect><g fill="none" stroke="#e32626" stroke-width="1"><path d="M8.6 5L8.6 22.3L-8.6 22.3L-8.6 5L-23.6 -3.6L-15 -18.6L0 -10L15 -18.6L23.6 -3.6Z" transform="translate(735 261)"></path><path d="M2.2 1.2L2.2 5.6L-2.2 5.6L-2.2 1.2L-5.9 -0.9L-3.7 -4.7L0 -2.5L3.7 -4.7L5.9 -0.9Z" transform="translate(90 151)"></path><path d="M4.6 2.6L4.6 11.8L-4.6 11.8L-4.6 2.6L-12.5 -1.9L-7.9 -9.9L0 -5.3L7.9 -9.9L12.5 -1.9Z" transform="translate(262 23)"></path><path d="M5.9 3.4L5.9 15.3L-5.9 15.3L-5.9 3.4L-16.2 -2.5L-10.3 -12.8L0 -6.9L10.3 -12.8L16.2 -2.5Z" transform="translate(155 393)"></path><path d="M2.2 1.2L2.2 5.6L-2.2 5.6L-2.2 1.2L-5.9 -0.9L-3.7 -4.7L0 -2.5L3.7 -4.7L5.9 -0.9Z" transform="translate(733 130)"></path><path d="M3.2 1.9L3.2 8.3L-3.2 8.3L-3.2 1.9L-8.8 -1.4L-5.6 -7L0 -3.7L5.6 -7L8.8 -1.4Z" transform="translate(412 182)"></path><path d="M3.5 2L3.5 9L-3.5 9L-3.5 2L-9.6 -1.5L-6.1 -7.6L0 -4.1L6.1 -7.6L9.6 -1.5Z" transform="translate(353 553)"></path></g></svg>