<svg id="visual" viewBox="0 0 900 600" width="900" height="600" xmlns="http://www.w3.org/2000/svg" xmlns:xlink="http://www.w3.org/1999/xlink" version="1.1"><rect x="0" y="0" width="900" height="600" fill="#ffffff"></rect><g fill="none" stroke="#e32626" stroke-width="1"><path d="M8.6 5L8.6 22.3L-8.6 22.3L-8.6 5L-23.6 -3.6L-15 -18.6L0 -10L15 -18.6L23.6 -3.6Z" transform="translate(438 274)"></path><path d="M0.5 0.3L0.5 1.4L-0.5 1.4L-0.5 0.3L-1.5 -0.2L-0.9 -1.2L0 -0.6L0.9 -1.2L1.5 -0.2Z" transform="translate(86 194)"></path><path d="M3.2 1.9L3.2 8.3L-3.2 8.3L-3.2 1.9L-8.8 -1.4L-5.6 -7L0 -3.7L5.6 -7L8.8 -1.4Z" transform="translate(646 165)"></path><path d="M2.2 1.2L2.2 5.6L-2.2 5.6L-2.2 1.2L-5.9 -0.9L-3.7 -4.7L0 -2.5L3.7 -4.7L5.9 -0.9Z" transform="translate(866 116)"></path><path d="M1.6 0.9L1.6 4.2L-1.6 4.2L-1.6 0.9L-4.4 -0.7L-2.8 -3.5L0 -1.9L2.8 -3.5L4.4 -0.7Z" transform="translate(202 223)"></path><path d="M4.6 2.6L4.6 11.8L-4.6 11.8L-4.6 2.6L-12.5 -1.9L-7.9 -9.9L0 -5.3L7.9 -9.9L12.5 -1.9Z" transform="translate(229 465)"></path><path d="M4 2.3L4 10.4L-4 10.4L-4 2.3L-11.1 -1.7L-7 -8.7L0 -4.7L7 -8.7L11.1 -1.7Z" transform="translate(761 312)"></path></g></svg>