<svg id="visual" viewBox="0 0 900 600" width="900" height="600" xmlns="http://www.w3.org/2000/svg" xmlns:xlink="http://www.w3.org/1999/xlink" version="1.1"><rect x="0" y="0" width="900" height="600" fill="#ffffff"></rect><g fill="none" stroke="#e32626" stroke-width="1"><path d="M3.8 2.2L3.8 9.7L-3.8 9.7L-3.8 2.2L-10.3 -1.6L-6.5 -8.1L0 -4.4L6.5 -8.1L10.3 -1.6Z" transform="translate(704 333)"></path><path d="M0.3 0.2L0.3 0.7L-0.3 0.7L-0.3 0.2L-0.7 -0.1L-0.5 -0.6L0 -0.3L0.5 -0.6L0.7 -0.1Z" transform="translate(235 513)"></path><path d="M1.3 0.8L1.3 3.5L-1.3 3.5L-1.3 0.8L-3.7 -0.6L-2.3 -2.9L0 -1.6L2.3 -2.9L3.7 -0.6Z" transform="translate(102 390)"></path><path d="M3 1.7L3 7.7L-3 7.7L-3 1.7L-8.1 -1.3L-5.1 -6.4L0 -3.4L5.1 -6.4L8.1 -1.3Z" transform="translate(783 566)"></path><path d="M1.3 0.8L1.3 3.5L-1.3 3.5L-1.3 0.8L-3.7 -0.6L-2.3 -2.9L0 -1.6L2.3 -2.9L3.7 -0.6Z" transform="translate(259 417)"></path><path d="M1.9 1.1L1.9 4.9L-1.9 4.9L-1.9 1.1L-5.2 -0.8L-3.3 -4.1L0 -2.2L3.3 -4.1L5.2 -0.8Z" transform="translate(509 373)"></path><path d="M1.1 0.6L1.1 2.8L-1.1 2.8L-1.1 0.6L-2.9 -0.5L-1.9 -2.3L0 -1.2L1.9 -2.3L2.9 -0.5Z" transform="translate(839 86)"></path><path d="M1.3 0.8L1.3 3.5L-1.3 3.5L-1.3 0.8L-3.7 -0.6L-2.3 -2.9L0 -1.6L2.3 -2.9L3.7 -0.6Z" transform="translate(30 406)"></path><path d="M1.1 0.6L1.1 2.8L-1.1 2.8L-1.1 0.6L-2.9 -0.5L-1.9 -2.3L0 -1.2L1.9 -2.3L2.9 -0.5Z" transform="translate(183 302)"></path><path d="M1.3 0.8L1.3 3.5L-1.3 3.5L-1.3 0.8L-3.7 -0.6L-2.3 -2.9L0 -1.6L2.3 -2.9L3.7 -0.6Z" transform="translate(130 255)"></path><path d="M2.2 1.2L2.2 5.6L-2.2 5.6L-2.2 1.2L-5.9 -0.9L-3.7 -4.7L0 -2.5L3.7 -4.7L5.9 -0.9Z" transform="translate(672 299)"></path><path d="M2.2 1.2L2.2 5.6L-2.2 5.6L-2.2 1.2L-5.9 -0.9L-3.7 -4.7L0 -2.5L3.7 -4.7L5.9 -0.9Z" transform="translate(348 232)"></path><path d="M1.9 1.1L1.9 4.9L-1.9 4.9L-1.9 1.1L-5.2 -0.8L-3.3 -4.1L0 -2.2L3.3 -4.1L5.2 -0.8Z" transform="translate(220 240)"></path><path d="M1.6 0.9L1.6 4.2L-1.6 4.2L-1.6 0.9L-4.4 -0.7L-2.8 -3.5L0 -1.9L2.8 -3.5L4.4 -0.7Z" transform="translate(92 263)"></path></g></svg>